M48
; DRILL file {KiCad 8.0.3} date 2025-03-14T18:40:15+0100
; FORMAT={-:-/ absolute / metric / decimal}
; #@! TF.CreationDate,2025-03-14T18:40:15+01:00
; #@! TF.GenerationSoftware,Kicad,Pcbnew,8.0.3
; #@! TF.FileFunction,Plated,1,2,PTH
FMAT,2
METRIC
; #@! TA.AperFunction,Plated,PTH,ViaDrill
T1C0.300
; #@! TA.AperFunction,Plated,PTH,ComponentDrill
T2C0.600
; #@! TA.AperFunction,Plated,PTH,ComponentDrill
T3C0.800
; #@! TA.AperFunction,Plated,PTH,ComponentDrill
T4C0.990
; #@! TA.AperFunction,Plated,PTH,ComponentDrill
T5C1.000
; #@! TA.AperFunction,Plated,PTH,ComponentDrill
T6C1.300
%
G90
G05
T1
X96.0Y-60.0
X97.5Y-60.0
X100.5Y-60.0
X102.0Y-60.0
X114.0Y-72.5
X115.0Y-64.5
X115.0Y-66.5
X115.0Y-68.5
X115.0Y-78.5
X128.5Y-70.5
X128.5Y-72.5
X128.5Y-76.5
X129.5Y-78.5
X130.0Y-64.5
X130.0Y-66.5
T3
X91.5Y-64.097
X91.5Y-69.097
X91.5Y-73.597
X91.5Y-78.597
X106.5Y-59.0
X109.5Y-59.0
X138.5Y-69.5
X138.5Y-74.5
T4
X146.5Y-57.0
X151.0Y-57.0
T5
X90.5Y-56.96
X90.5Y-59.5
X108.5Y-70.0
X108.5Y-72.54
X108.5Y-75.08
X135.225Y-58.5
X137.765Y-58.5
X141.235Y-79.5
X143.775Y-79.5
X148.46Y-79.5
X151.0Y-79.5
X153.54Y-79.5
T6
X145.25Y-59.49
X152.26Y-59.49
T2
X94.68Y-56.5G85X94.68Y-55.9
G05
X94.68Y-60.3G85X94.68Y-59.7
G05
X103.32Y-56.5G85X103.32Y-55.9
G05
X103.32Y-60.3G85X103.32Y-59.7
G05
M30
