G04 #@! TF.GenerationSoftware,KiCad,Pcbnew,8.0.3*
G04 #@! TF.CreationDate,2025-03-14T18:39:27+01:00*
G04 #@! TF.ProjectId,NIXIE_Sterownik,4e495849-455f-4537-9465-726f776e696b,rev?*
G04 #@! TF.SameCoordinates,Original*
G04 #@! TF.FileFunction,Copper,L1,Top*
G04 #@! TF.FilePolarity,Positive*
%FSLAX46Y46*%
G04 Gerber Fmt 4.6, Leading zero omitted, Abs format (unit mm)*
G04 Created by KiCad (PCBNEW 8.0.3) date 2025-03-14 18:39:27*
%MOMM*%
%LPD*%
G01*
G04 APERTURE LIST*
G04 Aperture macros list*
%AMRoundRect*
0 Rectangle with rounded corners*
0 $1 Rounding radius*
0 $2 $3 $4 $5 $6 $7 $8 $9 X,Y pos of 4 corners*
0 Add a 4 corners polygon primitive as box body*
4,1,4,$2,$3,$4,$5,$6,$7,$8,$9,$2,$3,0*
0 Add four circle primitives for the rounded corners*
1,1,$1+$1,$2,$3*
1,1,$1+$1,$4,$5*
1,1,$1+$1,$6,$7*
1,1,$1+$1,$8,$9*
0 Add four rect primitives between the rounded corners*
20,1,$1+$1,$2,$3,$4,$5,0*
20,1,$1+$1,$4,$5,$6,$7,0*
20,1,$1+$1,$6,$7,$8,$9,0*
20,1,$1+$1,$8,$9,$2,$3,0*%
G04 Aperture macros list end*
G04 #@! TA.AperFunction,SMDPad,CuDef*
%ADD10RoundRect,0.175000X0.175000X0.425000X-0.175000X0.425000X-0.175000X-0.425000X0.175000X-0.425000X0*%
G04 #@! TD*
G04 #@! TA.AperFunction,SMDPad,CuDef*
%ADD11RoundRect,0.190000X-0.190000X-0.410000X0.190000X-0.410000X0.190000X0.410000X-0.190000X0.410000X0*%
G04 #@! TD*
G04 #@! TA.AperFunction,SMDPad,CuDef*
%ADD12RoundRect,0.200000X-0.200000X-0.400000X0.200000X-0.400000X0.200000X0.400000X-0.200000X0.400000X0*%
G04 #@! TD*
G04 #@! TA.AperFunction,SMDPad,CuDef*
%ADD13RoundRect,0.175000X-0.175000X-0.425000X0.175000X-0.425000X0.175000X0.425000X-0.175000X0.425000X0*%
G04 #@! TD*
G04 #@! TA.AperFunction,SMDPad,CuDef*
%ADD14RoundRect,0.190000X0.190000X0.410000X-0.190000X0.410000X-0.190000X-0.410000X0.190000X-0.410000X0*%
G04 #@! TD*
G04 #@! TA.AperFunction,SMDPad,CuDef*
%ADD15RoundRect,0.200000X0.200000X0.400000X-0.200000X0.400000X-0.200000X-0.400000X0.200000X-0.400000X0*%
G04 #@! TD*
G04 #@! TA.AperFunction,ComponentPad*
%ADD16O,1.100000X1.700000*%
G04 #@! TD*
G04 #@! TA.AperFunction,ComponentPad*
%ADD17R,1.700000X1.700000*%
G04 #@! TD*
G04 #@! TA.AperFunction,ComponentPad*
%ADD18O,1.700000X1.700000*%
G04 #@! TD*
G04 #@! TA.AperFunction,ComponentPad*
%ADD19R,1.600000X1.600000*%
G04 #@! TD*
G04 #@! TA.AperFunction,ComponentPad*
%ADD20C,1.600000*%
G04 #@! TD*
G04 #@! TA.AperFunction,SMDPad,CuDef*
%ADD21R,2.500000X1.000000*%
G04 #@! TD*
G04 #@! TA.AperFunction,SMDPad,CuDef*
%ADD22R,1.000000X1.800000*%
G04 #@! TD*
G04 #@! TA.AperFunction,ComponentPad*
%ADD23C,2.100000*%
G04 #@! TD*
G04 #@! TA.AperFunction,ComponentPad*
%ADD24C,1.750000*%
G04 #@! TD*
G04 #@! TA.AperFunction,ViaPad*
%ADD25C,0.600000*%
G04 #@! TD*
G04 APERTURE END LIST*
D10*
X99500000Y-60080000D03*
D11*
X97480000Y-60080000D03*
D12*
X96250000Y-60080000D03*
D13*
X98500000Y-60080000D03*
D14*
X100520000Y-60080000D03*
D15*
X101750000Y-60080000D03*
D16*
X103320000Y-60000000D03*
X103320000Y-56200000D03*
X94680000Y-60000000D03*
X94680000Y-56200000D03*
D17*
X108500000Y-70000000D03*
D18*
X108500000Y-72540000D03*
X108500000Y-75080000D03*
D17*
X90500000Y-59500000D03*
D18*
X90500000Y-56960000D03*
D17*
X153540000Y-79500000D03*
D18*
X151000000Y-79500000D03*
X148460000Y-79500000D03*
D17*
X143775000Y-79500000D03*
D18*
X141235000Y-79500000D03*
D19*
X138500000Y-69500000D03*
D20*
X138500000Y-74500000D03*
D21*
X114300000Y-64500000D03*
X114300000Y-66500000D03*
X114300000Y-68500000D03*
X114300000Y-70500000D03*
X114300000Y-72500000D03*
X114300000Y-74500000D03*
X114300000Y-76500000D03*
X114300000Y-78500000D03*
D22*
X116900000Y-80000000D03*
X118900000Y-80000000D03*
X120900000Y-80000000D03*
X122900000Y-80000000D03*
X124900000Y-80000000D03*
X126900000Y-80000000D03*
D21*
X129500000Y-78500000D03*
X129500000Y-76500000D03*
X129500000Y-74500000D03*
X129500000Y-72500000D03*
X129500000Y-70500000D03*
X129500000Y-68500000D03*
X129500000Y-66500000D03*
X129500000Y-64500000D03*
D23*
X145250000Y-59490000D03*
X152260000Y-59490000D03*
D24*
X146500000Y-57000000D03*
X151000000Y-57000000D03*
D19*
X91500000Y-64097349D03*
D20*
X91500000Y-69097349D03*
X109500000Y-59000000D03*
X106500000Y-59000000D03*
D17*
X135225000Y-58500000D03*
D18*
X137765000Y-58500000D03*
D19*
X91500000Y-73597349D03*
D20*
X91500000Y-78597349D03*
D25*
X129500000Y-78500000D03*
X96000000Y-60000000D03*
X102000000Y-60000000D03*
X115000000Y-78500000D03*
X115000000Y-66500000D03*
X115000000Y-68500000D03*
X114000000Y-72500000D03*
X128500000Y-72500000D03*
X128500000Y-76500000D03*
X115000000Y-64500000D03*
X128500000Y-70500000D03*
X130000000Y-64500000D03*
X130000000Y-66500000D03*
X100500000Y-60000000D03*
X97500000Y-60000000D03*
M02*
