G04 #@! TF.GenerationSoftware,KiCad,Pcbnew,8.0.3*
G04 #@! TF.CreationDate,2025-03-14T18:39:27+01:00*
G04 #@! TF.ProjectId,NIXIE_Sterownik,4e495849-455f-4537-9465-726f776e696b,rev?*
G04 #@! TF.SameCoordinates,Original*
G04 #@! TF.FileFunction,Soldermask,Bot*
G04 #@! TF.FilePolarity,Negative*
%FSLAX46Y46*%
G04 Gerber Fmt 4.6, Leading zero omitted, Abs format (unit mm)*
G04 Created by KiCad (PCBNEW 8.0.3) date 2025-03-14 18:39:27*
%MOMM*%
%LPD*%
G01*
G04 APERTURE LIST*
G04 Aperture macros list*
%AMRoundRect*
0 Rectangle with rounded corners*
0 $1 Rounding radius*
0 $2 $3 $4 $5 $6 $7 $8 $9 X,Y pos of 4 corners*
0 Add a 4 corners polygon primitive as box body*
4,1,4,$2,$3,$4,$5,$6,$7,$8,$9,$2,$3,0*
0 Add four circle primitives for the rounded corners*
1,1,$1+$1,$2,$3*
1,1,$1+$1,$4,$5*
1,1,$1+$1,$6,$7*
1,1,$1+$1,$8,$9*
0 Add four rect primitives between the rounded corners*
20,1,$1+$1,$2,$3,$4,$5,0*
20,1,$1+$1,$4,$5,$6,$7,0*
20,1,$1+$1,$6,$7,$8,$9,0*
20,1,$1+$1,$8,$9,$2,$3,0*%
G04 Aperture macros list end*
%ADD10O,1.100000X1.700000*%
%ADD11C,2.700000*%
%ADD12R,1.700000X1.700000*%
%ADD13O,1.700000X1.700000*%
%ADD14R,1.600000X1.600000*%
%ADD15C,1.600000*%
%ADD16C,2.100000*%
%ADD17C,1.750000*%
%ADD18RoundRect,0.250000X0.312500X0.625000X-0.312500X0.625000X-0.312500X-0.625000X0.312500X-0.625000X0*%
%ADD19RoundRect,0.250000X-0.850000X-0.350000X0.850000X-0.350000X0.850000X0.350000X-0.850000X0.350000X0*%
%ADD20RoundRect,0.249997X-2.950003X-2.650003X2.950003X-2.650003X2.950003X2.650003X-2.950003X2.650003X0*%
%ADD21RoundRect,0.250000X-0.650000X0.412500X-0.650000X-0.412500X0.650000X-0.412500X0.650000X0.412500X0*%
%ADD22RoundRect,0.250000X-0.412500X-0.650000X0.412500X-0.650000X0.412500X0.650000X-0.412500X0.650000X0*%
%ADD23C,0.600000*%
G04 APERTURE END LIST*
D10*
X103320000Y-60000000D03*
X103320000Y-56200000D03*
X94680000Y-60000000D03*
X94680000Y-56200000D03*
D11*
X161400000Y-59850000D03*
D12*
X108500000Y-70000000D03*
D13*
X108500000Y-72540000D03*
X108500000Y-75080000D03*
D12*
X90500000Y-59500000D03*
D13*
X90500000Y-56960000D03*
D11*
X82450000Y-79200000D03*
D12*
X153540000Y-79500000D03*
D13*
X151000000Y-79500000D03*
X148460000Y-79500000D03*
D12*
X143775000Y-79500000D03*
D13*
X141235000Y-79500000D03*
D14*
X138500000Y-69500000D03*
D15*
X138500000Y-74500000D03*
D16*
X145250000Y-59490000D03*
X152260000Y-59490000D03*
D17*
X146500000Y-57000000D03*
X151000000Y-57000000D03*
D11*
X82450000Y-59850000D03*
D14*
X91500000Y-64097349D03*
D15*
X91500000Y-69097349D03*
D11*
X161450000Y-79200000D03*
D15*
X109500000Y-59000000D03*
X106500000Y-59000000D03*
D12*
X135225000Y-58500000D03*
D13*
X137765000Y-58500000D03*
D14*
X91500000Y-73597349D03*
D15*
X91500000Y-78597349D03*
D18*
X128462500Y-72500000D03*
X125537500Y-72500000D03*
D19*
X94277651Y-68780000D03*
X94277651Y-66500000D03*
D20*
X100577651Y-66500000D03*
D19*
X94277651Y-64220000D03*
D18*
X117962500Y-64000000D03*
X115037500Y-64000000D03*
D21*
X111500000Y-71000000D03*
X111500000Y-74125000D03*
D18*
X114962500Y-66500000D03*
X112037500Y-66500000D03*
D22*
X106937500Y-66500000D03*
X110062500Y-66500000D03*
D18*
X128462500Y-70000000D03*
X125537500Y-70000000D03*
X128462500Y-76500000D03*
X125537500Y-76500000D03*
X117962500Y-61500000D03*
X115037500Y-61500000D03*
X117962500Y-69000000D03*
X115037500Y-69000000D03*
D19*
X94500000Y-78500000D03*
X94500000Y-76220000D03*
D20*
X100800000Y-76220000D03*
D19*
X94500000Y-73940000D03*
D22*
X120437500Y-76500000D03*
X123562500Y-76500000D03*
D23*
X129500000Y-78500000D03*
X96000000Y-60000000D03*
X102000000Y-60000000D03*
X115000000Y-78500000D03*
X115000000Y-66500000D03*
X115000000Y-68500000D03*
X114000000Y-72500000D03*
X128500000Y-72500000D03*
X128500000Y-76500000D03*
X115000000Y-64500000D03*
X128500000Y-70500000D03*
X130000000Y-64500000D03*
X130000000Y-66500000D03*
X100500000Y-60000000D03*
X97500000Y-60000000D03*
M02*
