G04 #@! TF.GenerationSoftware,KiCad,Pcbnew,8.0.3*
G04 #@! TF.CreationDate,2025-03-14T18:39:27+01:00*
G04 #@! TF.ProjectId,NIXIE_Sterownik,4e495849-455f-4537-9465-726f776e696b,rev?*
G04 #@! TF.SameCoordinates,Original*
G04 #@! TF.FileFunction,Legend,Top*
G04 #@! TF.FilePolarity,Positive*
%FSLAX46Y46*%
G04 Gerber Fmt 4.6, Leading zero omitted, Abs format (unit mm)*
G04 Created by KiCad (PCBNEW 8.0.3) date 2025-03-14 18:39:27*
%MOMM*%
%LPD*%
G01*
G04 APERTURE LIST*
G04 Aperture macros list*
%AMRoundRect*
0 Rectangle with rounded corners*
0 $1 Rounding radius*
0 $2 $3 $4 $5 $6 $7 $8 $9 X,Y pos of 4 corners*
0 Add a 4 corners polygon primitive as box body*
4,1,4,$2,$3,$4,$5,$6,$7,$8,$9,$2,$3,0*
0 Add four circle primitives for the rounded corners*
1,1,$1+$1,$2,$3*
1,1,$1+$1,$4,$5*
1,1,$1+$1,$6,$7*
1,1,$1+$1,$8,$9*
0 Add four rect primitives between the rounded corners*
20,1,$1+$1,$2,$3,$4,$5,0*
20,1,$1+$1,$4,$5,$6,$7,0*
20,1,$1+$1,$6,$7,$8,$9,0*
20,1,$1+$1,$8,$9,$2,$3,0*%
G04 Aperture macros list end*
%ADD10C,0.300000*%
%ADD11C,0.200000*%
%ADD12C,0.250000*%
%ADD13C,0.150000*%
%ADD14C,0.254000*%
%ADD15C,0.120000*%
%ADD16C,0.100000*%
%ADD17C,0.010000*%
%ADD18RoundRect,0.175000X0.175000X0.425000X-0.175000X0.425000X-0.175000X-0.425000X0.175000X-0.425000X0*%
%ADD19RoundRect,0.190000X-0.190000X-0.410000X0.190000X-0.410000X0.190000X0.410000X-0.190000X0.410000X0*%
%ADD20RoundRect,0.200000X-0.200000X-0.400000X0.200000X-0.400000X0.200000X0.400000X-0.200000X0.400000X0*%
%ADD21RoundRect,0.175000X-0.175000X-0.425000X0.175000X-0.425000X0.175000X0.425000X-0.175000X0.425000X0*%
%ADD22RoundRect,0.190000X0.190000X0.410000X-0.190000X0.410000X-0.190000X-0.410000X0.190000X-0.410000X0*%
%ADD23RoundRect,0.200000X0.200000X0.400000X-0.200000X0.400000X-0.200000X-0.400000X0.200000X-0.400000X0*%
%ADD24O,1.100000X1.700000*%
%ADD25C,2.700000*%
%ADD26R,1.700000X1.700000*%
%ADD27O,1.700000X1.700000*%
%ADD28R,1.600000X1.600000*%
%ADD29C,1.600000*%
%ADD30R,2.500000X1.000000*%
%ADD31R,1.000000X1.800000*%
%ADD32C,2.100000*%
%ADD33C,1.750000*%
%ADD34C,0.600000*%
G04 APERTURE END LIST*
D10*
X88270600Y-60445489D02*
X88270600Y-59302632D01*
X87699171Y-59874060D02*
X88842028Y-59874060D01*
X88270600Y-57445489D02*
X88270600Y-56302632D01*
D11*
X147293482Y-81964838D02*
X147198244Y-81917219D01*
X147198244Y-81917219D02*
X147055387Y-81917219D01*
X147055387Y-81917219D02*
X146912530Y-81964838D01*
X146912530Y-81964838D02*
X146817292Y-82060076D01*
X146817292Y-82060076D02*
X146769673Y-82155314D01*
X146769673Y-82155314D02*
X146722054Y-82345790D01*
X146722054Y-82345790D02*
X146722054Y-82488647D01*
X146722054Y-82488647D02*
X146769673Y-82679123D01*
X146769673Y-82679123D02*
X146817292Y-82774361D01*
X146817292Y-82774361D02*
X146912530Y-82869600D01*
X146912530Y-82869600D02*
X147055387Y-82917219D01*
X147055387Y-82917219D02*
X147150625Y-82917219D01*
X147150625Y-82917219D02*
X147293482Y-82869600D01*
X147293482Y-82869600D02*
X147341101Y-82821980D01*
X147341101Y-82821980D02*
X147341101Y-82488647D01*
X147341101Y-82488647D02*
X147150625Y-82488647D01*
X147769673Y-82917219D02*
X147769673Y-81917219D01*
X147769673Y-81917219D02*
X148341101Y-82917219D01*
X148341101Y-82917219D02*
X148341101Y-81917219D01*
X148817292Y-82917219D02*
X148817292Y-81917219D01*
X148817292Y-81917219D02*
X149055387Y-81917219D01*
X149055387Y-81917219D02*
X149198244Y-81964838D01*
X149198244Y-81964838D02*
X149293482Y-82060076D01*
X149293482Y-82060076D02*
X149341101Y-82155314D01*
X149341101Y-82155314D02*
X149388720Y-82345790D01*
X149388720Y-82345790D02*
X149388720Y-82488647D01*
X149388720Y-82488647D02*
X149341101Y-82679123D01*
X149341101Y-82679123D02*
X149293482Y-82774361D01*
X149293482Y-82774361D02*
X149198244Y-82869600D01*
X149198244Y-82869600D02*
X149055387Y-82917219D01*
X149055387Y-82917219D02*
X148817292Y-82917219D01*
X151150625Y-82917219D02*
X150817292Y-82441028D01*
X150579197Y-82917219D02*
X150579197Y-81917219D01*
X150579197Y-81917219D02*
X150960149Y-81917219D01*
X150960149Y-81917219D02*
X151055387Y-81964838D01*
X151055387Y-81964838D02*
X151103006Y-82012457D01*
X151103006Y-82012457D02*
X151150625Y-82107695D01*
X151150625Y-82107695D02*
X151150625Y-82250552D01*
X151150625Y-82250552D02*
X151103006Y-82345790D01*
X151103006Y-82345790D02*
X151055387Y-82393409D01*
X151055387Y-82393409D02*
X150960149Y-82441028D01*
X150960149Y-82441028D02*
X150579197Y-82441028D01*
X151483959Y-81917219D02*
X152150625Y-82917219D01*
X152150625Y-81917219D02*
X151483959Y-82917219D01*
X153150626Y-81917219D02*
X153722054Y-81917219D01*
X153436340Y-82917219D02*
X153436340Y-81917219D01*
X153960150Y-81917219D02*
X154626816Y-82917219D01*
X154626816Y-81917219D02*
X153960150Y-82917219D01*
D12*
X134973996Y-56364619D02*
X134640663Y-55888428D01*
X134402568Y-56364619D02*
X134402568Y-55364619D01*
X134402568Y-55364619D02*
X134783520Y-55364619D01*
X134783520Y-55364619D02*
X134878758Y-55412238D01*
X134878758Y-55412238D02*
X134926377Y-55459857D01*
X134926377Y-55459857D02*
X134973996Y-55555095D01*
X134973996Y-55555095D02*
X134973996Y-55697952D01*
X134973996Y-55697952D02*
X134926377Y-55793190D01*
X134926377Y-55793190D02*
X134878758Y-55840809D01*
X134878758Y-55840809D02*
X134783520Y-55888428D01*
X134783520Y-55888428D02*
X134402568Y-55888428D01*
X135402568Y-55840809D02*
X135735901Y-55840809D01*
X135878758Y-56364619D02*
X135402568Y-56364619D01*
X135402568Y-56364619D02*
X135402568Y-55364619D01*
X135402568Y-55364619D02*
X135878758Y-55364619D01*
X136259711Y-56317000D02*
X136402568Y-56364619D01*
X136402568Y-56364619D02*
X136640663Y-56364619D01*
X136640663Y-56364619D02*
X136735901Y-56317000D01*
X136735901Y-56317000D02*
X136783520Y-56269380D01*
X136783520Y-56269380D02*
X136831139Y-56174142D01*
X136831139Y-56174142D02*
X136831139Y-56078904D01*
X136831139Y-56078904D02*
X136783520Y-55983666D01*
X136783520Y-55983666D02*
X136735901Y-55936047D01*
X136735901Y-55936047D02*
X136640663Y-55888428D01*
X136640663Y-55888428D02*
X136450187Y-55840809D01*
X136450187Y-55840809D02*
X136354949Y-55793190D01*
X136354949Y-55793190D02*
X136307330Y-55745571D01*
X136307330Y-55745571D02*
X136259711Y-55650333D01*
X136259711Y-55650333D02*
X136259711Y-55555095D01*
X136259711Y-55555095D02*
X136307330Y-55459857D01*
X136307330Y-55459857D02*
X136354949Y-55412238D01*
X136354949Y-55412238D02*
X136450187Y-55364619D01*
X136450187Y-55364619D02*
X136688282Y-55364619D01*
X136688282Y-55364619D02*
X136831139Y-55412238D01*
X137259711Y-55840809D02*
X137593044Y-55840809D01*
X137735901Y-56364619D02*
X137259711Y-56364619D01*
X137259711Y-56364619D02*
X137259711Y-55364619D01*
X137259711Y-55364619D02*
X137735901Y-55364619D01*
X138021616Y-55364619D02*
X138593044Y-55364619D01*
X138307330Y-56364619D02*
X138307330Y-55364619D01*
D11*
X105486266Y-75130326D02*
X105486266Y-74368422D01*
X105867219Y-72654136D02*
X105867219Y-73130326D01*
X105867219Y-73130326D02*
X104867219Y-73130326D01*
X105343409Y-72320802D02*
X105343409Y-71987469D01*
X105867219Y-71844612D02*
X105867219Y-72320802D01*
X105867219Y-72320802D02*
X104867219Y-72320802D01*
X104867219Y-72320802D02*
X104867219Y-71844612D01*
X105867219Y-71416040D02*
X104867219Y-71416040D01*
X104867219Y-71416040D02*
X104867219Y-71177945D01*
X104867219Y-71177945D02*
X104914838Y-71035088D01*
X104914838Y-71035088D02*
X105010076Y-70939850D01*
X105010076Y-70939850D02*
X105105314Y-70892231D01*
X105105314Y-70892231D02*
X105295790Y-70844612D01*
X105295790Y-70844612D02*
X105438647Y-70844612D01*
X105438647Y-70844612D02*
X105629123Y-70892231D01*
X105629123Y-70892231D02*
X105724361Y-70939850D01*
X105724361Y-70939850D02*
X105819600Y-71035088D01*
X105819600Y-71035088D02*
X105867219Y-71177945D01*
X105867219Y-71177945D02*
X105867219Y-71416040D01*
X105486266Y-69654135D02*
X105486266Y-68892231D01*
X105867219Y-69273183D02*
X105105314Y-69273183D01*
X87869673Y-82757275D02*
X87869673Y-81757275D01*
X87869673Y-81757275D02*
X88441101Y-82757275D01*
X88441101Y-82757275D02*
X88441101Y-81757275D01*
X88917292Y-82757275D02*
X88917292Y-82090608D01*
X88917292Y-81757275D02*
X88869673Y-81804894D01*
X88869673Y-81804894D02*
X88917292Y-81852513D01*
X88917292Y-81852513D02*
X88964911Y-81804894D01*
X88964911Y-81804894D02*
X88917292Y-81757275D01*
X88917292Y-81757275D02*
X88917292Y-81852513D01*
X89298244Y-82757275D02*
X89822053Y-82090608D01*
X89298244Y-82090608D02*
X89822053Y-82757275D01*
X90203006Y-82757275D02*
X90203006Y-82090608D01*
X90203006Y-81757275D02*
X90155387Y-81804894D01*
X90155387Y-81804894D02*
X90203006Y-81852513D01*
X90203006Y-81852513D02*
X90250625Y-81804894D01*
X90250625Y-81804894D02*
X90203006Y-81757275D01*
X90203006Y-81757275D02*
X90203006Y-81852513D01*
X91060148Y-82709656D02*
X90964910Y-82757275D01*
X90964910Y-82757275D02*
X90774434Y-82757275D01*
X90774434Y-82757275D02*
X90679196Y-82709656D01*
X90679196Y-82709656D02*
X90631577Y-82614417D01*
X90631577Y-82614417D02*
X90631577Y-82233465D01*
X90631577Y-82233465D02*
X90679196Y-82138227D01*
X90679196Y-82138227D02*
X90774434Y-82090608D01*
X90774434Y-82090608D02*
X90964910Y-82090608D01*
X90964910Y-82090608D02*
X91060148Y-82138227D01*
X91060148Y-82138227D02*
X91107767Y-82233465D01*
X91107767Y-82233465D02*
X91107767Y-82328703D01*
X91107767Y-82328703D02*
X90631577Y-82423941D01*
X92869672Y-82662036D02*
X92822053Y-82709656D01*
X92822053Y-82709656D02*
X92679196Y-82757275D01*
X92679196Y-82757275D02*
X92583958Y-82757275D01*
X92583958Y-82757275D02*
X92441101Y-82709656D01*
X92441101Y-82709656D02*
X92345863Y-82614417D01*
X92345863Y-82614417D02*
X92298244Y-82519179D01*
X92298244Y-82519179D02*
X92250625Y-82328703D01*
X92250625Y-82328703D02*
X92250625Y-82185846D01*
X92250625Y-82185846D02*
X92298244Y-81995370D01*
X92298244Y-81995370D02*
X92345863Y-81900132D01*
X92345863Y-81900132D02*
X92441101Y-81804894D01*
X92441101Y-81804894D02*
X92583958Y-81757275D01*
X92583958Y-81757275D02*
X92679196Y-81757275D01*
X92679196Y-81757275D02*
X92822053Y-81804894D01*
X92822053Y-81804894D02*
X92869672Y-81852513D01*
X93441101Y-82757275D02*
X93345863Y-82709656D01*
X93345863Y-82709656D02*
X93298244Y-82614417D01*
X93298244Y-82614417D02*
X93298244Y-81757275D01*
X93964911Y-82757275D02*
X93869673Y-82709656D01*
X93869673Y-82709656D02*
X93822054Y-82662036D01*
X93822054Y-82662036D02*
X93774435Y-82566798D01*
X93774435Y-82566798D02*
X93774435Y-82281084D01*
X93774435Y-82281084D02*
X93822054Y-82185846D01*
X93822054Y-82185846D02*
X93869673Y-82138227D01*
X93869673Y-82138227D02*
X93964911Y-82090608D01*
X93964911Y-82090608D02*
X94107768Y-82090608D01*
X94107768Y-82090608D02*
X94203006Y-82138227D01*
X94203006Y-82138227D02*
X94250625Y-82185846D01*
X94250625Y-82185846D02*
X94298244Y-82281084D01*
X94298244Y-82281084D02*
X94298244Y-82566798D01*
X94298244Y-82566798D02*
X94250625Y-82662036D01*
X94250625Y-82662036D02*
X94203006Y-82709656D01*
X94203006Y-82709656D02*
X94107768Y-82757275D01*
X94107768Y-82757275D02*
X93964911Y-82757275D01*
X95155387Y-82709656D02*
X95060149Y-82757275D01*
X95060149Y-82757275D02*
X94869673Y-82757275D01*
X94869673Y-82757275D02*
X94774435Y-82709656D01*
X94774435Y-82709656D02*
X94726816Y-82662036D01*
X94726816Y-82662036D02*
X94679197Y-82566798D01*
X94679197Y-82566798D02*
X94679197Y-82281084D01*
X94679197Y-82281084D02*
X94726816Y-82185846D01*
X94726816Y-82185846D02*
X94774435Y-82138227D01*
X94774435Y-82138227D02*
X94869673Y-82090608D01*
X94869673Y-82090608D02*
X95060149Y-82090608D01*
X95060149Y-82090608D02*
X95155387Y-82138227D01*
X95583959Y-82757275D02*
X95583959Y-81757275D01*
X95679197Y-82376322D02*
X95964911Y-82757275D01*
X95964911Y-82090608D02*
X95583959Y-82471560D01*
X97155388Y-82757275D02*
X97155388Y-81757275D01*
X97155388Y-81757275D02*
X97393483Y-81757275D01*
X97393483Y-81757275D02*
X97536340Y-81804894D01*
X97536340Y-81804894D02*
X97631578Y-81900132D01*
X97631578Y-81900132D02*
X97679197Y-81995370D01*
X97679197Y-81995370D02*
X97726816Y-82185846D01*
X97726816Y-82185846D02*
X97726816Y-82328703D01*
X97726816Y-82328703D02*
X97679197Y-82519179D01*
X97679197Y-82519179D02*
X97631578Y-82614417D01*
X97631578Y-82614417D02*
X97536340Y-82709656D01*
X97536340Y-82709656D02*
X97393483Y-82757275D01*
X97393483Y-82757275D02*
X97155388Y-82757275D01*
X98155388Y-82757275D02*
X98155388Y-82090608D01*
X98155388Y-82281084D02*
X98203007Y-82185846D01*
X98203007Y-82185846D02*
X98250626Y-82138227D01*
X98250626Y-82138227D02*
X98345864Y-82090608D01*
X98345864Y-82090608D02*
X98441102Y-82090608D01*
X98774436Y-82757275D02*
X98774436Y-82090608D01*
X98774436Y-81757275D02*
X98726817Y-81804894D01*
X98726817Y-81804894D02*
X98774436Y-81852513D01*
X98774436Y-81852513D02*
X98822055Y-81804894D01*
X98822055Y-81804894D02*
X98774436Y-81757275D01*
X98774436Y-81757275D02*
X98774436Y-81852513D01*
X99155388Y-82090608D02*
X99393483Y-82757275D01*
X99393483Y-82757275D02*
X99631578Y-82090608D01*
X100393483Y-82709656D02*
X100298245Y-82757275D01*
X100298245Y-82757275D02*
X100107769Y-82757275D01*
X100107769Y-82757275D02*
X100012531Y-82709656D01*
X100012531Y-82709656D02*
X99964912Y-82614417D01*
X99964912Y-82614417D02*
X99964912Y-82233465D01*
X99964912Y-82233465D02*
X100012531Y-82138227D01*
X100012531Y-82138227D02*
X100107769Y-82090608D01*
X100107769Y-82090608D02*
X100298245Y-82090608D01*
X100298245Y-82090608D02*
X100393483Y-82138227D01*
X100393483Y-82138227D02*
X100441102Y-82233465D01*
X100441102Y-82233465D02*
X100441102Y-82328703D01*
X100441102Y-82328703D02*
X99964912Y-82423941D01*
X100869674Y-82757275D02*
X100869674Y-82090608D01*
X100869674Y-82281084D02*
X100917293Y-82185846D01*
X100917293Y-82185846D02*
X100964912Y-82138227D01*
X100964912Y-82138227D02*
X101060150Y-82090608D01*
X101060150Y-82090608D02*
X101155388Y-82090608D01*
X102203008Y-81852513D02*
X102250627Y-81804894D01*
X102250627Y-81804894D02*
X102345865Y-81757275D01*
X102345865Y-81757275D02*
X102583960Y-81757275D01*
X102583960Y-81757275D02*
X102679198Y-81804894D01*
X102679198Y-81804894D02*
X102726817Y-81852513D01*
X102726817Y-81852513D02*
X102774436Y-81947751D01*
X102774436Y-81947751D02*
X102774436Y-82042989D01*
X102774436Y-82042989D02*
X102726817Y-82185846D01*
X102726817Y-82185846D02*
X102155389Y-82757275D01*
X102155389Y-82757275D02*
X102774436Y-82757275D01*
X103393484Y-81757275D02*
X103488722Y-81757275D01*
X103488722Y-81757275D02*
X103583960Y-81804894D01*
X103583960Y-81804894D02*
X103631579Y-81852513D01*
X103631579Y-81852513D02*
X103679198Y-81947751D01*
X103679198Y-81947751D02*
X103726817Y-82138227D01*
X103726817Y-82138227D02*
X103726817Y-82376322D01*
X103726817Y-82376322D02*
X103679198Y-82566798D01*
X103679198Y-82566798D02*
X103631579Y-82662036D01*
X103631579Y-82662036D02*
X103583960Y-82709656D01*
X103583960Y-82709656D02*
X103488722Y-82757275D01*
X103488722Y-82757275D02*
X103393484Y-82757275D01*
X103393484Y-82757275D02*
X103298246Y-82709656D01*
X103298246Y-82709656D02*
X103250627Y-82662036D01*
X103250627Y-82662036D02*
X103203008Y-82566798D01*
X103203008Y-82566798D02*
X103155389Y-82376322D01*
X103155389Y-82376322D02*
X103155389Y-82138227D01*
X103155389Y-82138227D02*
X103203008Y-81947751D01*
X103203008Y-81947751D02*
X103250627Y-81852513D01*
X103250627Y-81852513D02*
X103298246Y-81804894D01*
X103298246Y-81804894D02*
X103393484Y-81757275D01*
X104107770Y-81852513D02*
X104155389Y-81804894D01*
X104155389Y-81804894D02*
X104250627Y-81757275D01*
X104250627Y-81757275D02*
X104488722Y-81757275D01*
X104488722Y-81757275D02*
X104583960Y-81804894D01*
X104583960Y-81804894D02*
X104631579Y-81852513D01*
X104631579Y-81852513D02*
X104679198Y-81947751D01*
X104679198Y-81947751D02*
X104679198Y-82042989D01*
X104679198Y-82042989D02*
X104631579Y-82185846D01*
X104631579Y-82185846D02*
X104060151Y-82757275D01*
X104060151Y-82757275D02*
X104679198Y-82757275D01*
X105583960Y-81757275D02*
X105107770Y-81757275D01*
X105107770Y-81757275D02*
X105060151Y-82233465D01*
X105060151Y-82233465D02*
X105107770Y-82185846D01*
X105107770Y-82185846D02*
X105203008Y-82138227D01*
X105203008Y-82138227D02*
X105441103Y-82138227D01*
X105441103Y-82138227D02*
X105536341Y-82185846D01*
X105536341Y-82185846D02*
X105583960Y-82233465D01*
X105583960Y-82233465D02*
X105631579Y-82328703D01*
X105631579Y-82328703D02*
X105631579Y-82566798D01*
X105631579Y-82566798D02*
X105583960Y-82662036D01*
X105583960Y-82662036D02*
X105536341Y-82709656D01*
X105536341Y-82709656D02*
X105441103Y-82757275D01*
X105441103Y-82757275D02*
X105203008Y-82757275D01*
X105203008Y-82757275D02*
X105107770Y-82709656D01*
X105107770Y-82709656D02*
X105060151Y-82662036D01*
X141203006Y-82343409D02*
X140869673Y-82343409D01*
X140869673Y-82867219D02*
X140869673Y-81867219D01*
X140869673Y-81867219D02*
X141345863Y-81867219D01*
X141869673Y-82867219D02*
X141774435Y-82819600D01*
X141774435Y-82819600D02*
X141726816Y-82724361D01*
X141726816Y-82724361D02*
X141726816Y-81867219D01*
X142679197Y-82867219D02*
X142679197Y-82343409D01*
X142679197Y-82343409D02*
X142631578Y-82248171D01*
X142631578Y-82248171D02*
X142536340Y-82200552D01*
X142536340Y-82200552D02*
X142345864Y-82200552D01*
X142345864Y-82200552D02*
X142250626Y-82248171D01*
X142679197Y-82819600D02*
X142583959Y-82867219D01*
X142583959Y-82867219D02*
X142345864Y-82867219D01*
X142345864Y-82867219D02*
X142250626Y-82819600D01*
X142250626Y-82819600D02*
X142203007Y-82724361D01*
X142203007Y-82724361D02*
X142203007Y-82629123D01*
X142203007Y-82629123D02*
X142250626Y-82533885D01*
X142250626Y-82533885D02*
X142345864Y-82486266D01*
X142345864Y-82486266D02*
X142583959Y-82486266D01*
X142583959Y-82486266D02*
X142679197Y-82438647D01*
X143107769Y-82819600D02*
X143203007Y-82867219D01*
X143203007Y-82867219D02*
X143393483Y-82867219D01*
X143393483Y-82867219D02*
X143488721Y-82819600D01*
X143488721Y-82819600D02*
X143536340Y-82724361D01*
X143536340Y-82724361D02*
X143536340Y-82676742D01*
X143536340Y-82676742D02*
X143488721Y-82581504D01*
X143488721Y-82581504D02*
X143393483Y-82533885D01*
X143393483Y-82533885D02*
X143250626Y-82533885D01*
X143250626Y-82533885D02*
X143155388Y-82486266D01*
X143155388Y-82486266D02*
X143107769Y-82391028D01*
X143107769Y-82391028D02*
X143107769Y-82343409D01*
X143107769Y-82343409D02*
X143155388Y-82248171D01*
X143155388Y-82248171D02*
X143250626Y-82200552D01*
X143250626Y-82200552D02*
X143393483Y-82200552D01*
X143393483Y-82200552D02*
X143488721Y-82248171D01*
X143964912Y-82867219D02*
X143964912Y-81867219D01*
X144393483Y-82867219D02*
X144393483Y-82343409D01*
X144393483Y-82343409D02*
X144345864Y-82248171D01*
X144345864Y-82248171D02*
X144250626Y-82200552D01*
X144250626Y-82200552D02*
X144107769Y-82200552D01*
X144107769Y-82200552D02*
X144012531Y-82248171D01*
X144012531Y-82248171D02*
X143964912Y-82295790D01*
X115263720Y-83017219D02*
X115388720Y-82017219D01*
X115388720Y-82017219D02*
X115769673Y-82017219D01*
X115769673Y-82017219D02*
X115858958Y-82064838D01*
X115858958Y-82064838D02*
X115900625Y-82112457D01*
X115900625Y-82112457D02*
X115936339Y-82207695D01*
X115936339Y-82207695D02*
X115918482Y-82350552D01*
X115918482Y-82350552D02*
X115858958Y-82445790D01*
X115858958Y-82445790D02*
X115805387Y-82493409D01*
X115805387Y-82493409D02*
X115704197Y-82541028D01*
X115704197Y-82541028D02*
X115323244Y-82541028D01*
X116406578Y-83017219D02*
X116317292Y-82969600D01*
X116317292Y-82969600D02*
X116275625Y-82921980D01*
X116275625Y-82921980D02*
X116239911Y-82826742D01*
X116239911Y-82826742D02*
X116275625Y-82541028D01*
X116275625Y-82541028D02*
X116335149Y-82445790D01*
X116335149Y-82445790D02*
X116388720Y-82398171D01*
X116388720Y-82398171D02*
X116489911Y-82350552D01*
X116489911Y-82350552D02*
X116632768Y-82350552D01*
X116632768Y-82350552D02*
X116722054Y-82398171D01*
X116722054Y-82398171D02*
X116763720Y-82445790D01*
X116763720Y-82445790D02*
X116799435Y-82541028D01*
X116799435Y-82541028D02*
X116763720Y-82826742D01*
X116763720Y-82826742D02*
X116704197Y-82921980D01*
X116704197Y-82921980D02*
X116650625Y-82969600D01*
X116650625Y-82969600D02*
X116549435Y-83017219D01*
X116549435Y-83017219D02*
X116406578Y-83017219D01*
X117156578Y-82350552D02*
X117263720Y-83017219D01*
X117263720Y-83017219D02*
X117513720Y-82541028D01*
X117513720Y-82541028D02*
X117644673Y-83017219D01*
X117644673Y-83017219D02*
X117918482Y-82350552D01*
X118603006Y-82969600D02*
X118501816Y-83017219D01*
X118501816Y-83017219D02*
X118311339Y-83017219D01*
X118311339Y-83017219D02*
X118222054Y-82969600D01*
X118222054Y-82969600D02*
X118186339Y-82874361D01*
X118186339Y-82874361D02*
X118233959Y-82493409D01*
X118233959Y-82493409D02*
X118293482Y-82398171D01*
X118293482Y-82398171D02*
X118394673Y-82350552D01*
X118394673Y-82350552D02*
X118585149Y-82350552D01*
X118585149Y-82350552D02*
X118674435Y-82398171D01*
X118674435Y-82398171D02*
X118710149Y-82493409D01*
X118710149Y-82493409D02*
X118698244Y-82588647D01*
X118698244Y-82588647D02*
X118210149Y-82683885D01*
X119073244Y-83017219D02*
X119156578Y-82350552D01*
X119132768Y-82541028D02*
X119192292Y-82445790D01*
X119192292Y-82445790D02*
X119245863Y-82398171D01*
X119245863Y-82398171D02*
X119347054Y-82350552D01*
X119347054Y-82350552D02*
X119442292Y-82350552D01*
X120079197Y-82969600D02*
X119978007Y-83017219D01*
X119978007Y-83017219D02*
X119787530Y-83017219D01*
X119787530Y-83017219D02*
X119698245Y-82969600D01*
X119698245Y-82969600D02*
X119662530Y-82874361D01*
X119662530Y-82874361D02*
X119710150Y-82493409D01*
X119710150Y-82493409D02*
X119769673Y-82398171D01*
X119769673Y-82398171D02*
X119870864Y-82350552D01*
X119870864Y-82350552D02*
X120061340Y-82350552D01*
X120061340Y-82350552D02*
X120150626Y-82398171D01*
X120150626Y-82398171D02*
X120186340Y-82493409D01*
X120186340Y-82493409D02*
X120174435Y-82588647D01*
X120174435Y-82588647D02*
X119686340Y-82683885D01*
X120978007Y-83017219D02*
X121103007Y-82017219D01*
X120983959Y-82969600D02*
X120882769Y-83017219D01*
X120882769Y-83017219D02*
X120692293Y-83017219D01*
X120692293Y-83017219D02*
X120603007Y-82969600D01*
X120603007Y-82969600D02*
X120561340Y-82921980D01*
X120561340Y-82921980D02*
X120525626Y-82826742D01*
X120525626Y-82826742D02*
X120561340Y-82541028D01*
X120561340Y-82541028D02*
X120620864Y-82445790D01*
X120620864Y-82445790D02*
X120674435Y-82398171D01*
X120674435Y-82398171D02*
X120775626Y-82350552D01*
X120775626Y-82350552D02*
X120966102Y-82350552D01*
X120966102Y-82350552D02*
X121055388Y-82398171D01*
X122216102Y-83017219D02*
X122341102Y-82017219D01*
X122293483Y-82398171D02*
X122394674Y-82350552D01*
X122394674Y-82350552D02*
X122585150Y-82350552D01*
X122585150Y-82350552D02*
X122674436Y-82398171D01*
X122674436Y-82398171D02*
X122716102Y-82445790D01*
X122716102Y-82445790D02*
X122751817Y-82541028D01*
X122751817Y-82541028D02*
X122716102Y-82826742D01*
X122716102Y-82826742D02*
X122656579Y-82921980D01*
X122656579Y-82921980D02*
X122603007Y-82969600D01*
X122603007Y-82969600D02*
X122501817Y-83017219D01*
X122501817Y-83017219D02*
X122311340Y-83017219D01*
X122311340Y-83017219D02*
X122222055Y-82969600D01*
X123108960Y-82350552D02*
X123263722Y-83017219D01*
X123585150Y-82350552D02*
X123263722Y-83017219D01*
X123263722Y-83017219D02*
X123138722Y-83255314D01*
X123138722Y-83255314D02*
X123085150Y-83302933D01*
X123085150Y-83302933D02*
X122983960Y-83350552D01*
X124674436Y-82017219D02*
X124787532Y-83017219D01*
X124787532Y-83017219D02*
X125067293Y-82302933D01*
X125067293Y-82302933D02*
X125168484Y-83017219D01*
X125168484Y-83017219D02*
X125531579Y-82017219D01*
X125870865Y-82350552D02*
X125787531Y-83017219D01*
X125858960Y-82445790D02*
X125912531Y-82398171D01*
X125912531Y-82398171D02*
X126013722Y-82350552D01*
X126013722Y-82350552D02*
X126156579Y-82350552D01*
X126156579Y-82350552D02*
X126245865Y-82398171D01*
X126245865Y-82398171D02*
X126281579Y-82493409D01*
X126281579Y-82493409D02*
X126216103Y-83017219D01*
X127079198Y-82969600D02*
X126978008Y-83017219D01*
X126978008Y-83017219D02*
X126787531Y-83017219D01*
X126787531Y-83017219D02*
X126698246Y-82969600D01*
X126698246Y-82969600D02*
X126662531Y-82874361D01*
X126662531Y-82874361D02*
X126710151Y-82493409D01*
X126710151Y-82493409D02*
X126769674Y-82398171D01*
X126769674Y-82398171D02*
X126870865Y-82350552D01*
X126870865Y-82350552D02*
X127061341Y-82350552D01*
X127061341Y-82350552D02*
X127150627Y-82398171D01*
X127150627Y-82398171D02*
X127186341Y-82493409D01*
X127186341Y-82493409D02*
X127174436Y-82588647D01*
X127174436Y-82588647D02*
X126686341Y-82683885D01*
X128061341Y-82350552D02*
X127936341Y-83350552D01*
X127983960Y-82969600D02*
X127882770Y-83017219D01*
X127882770Y-83017219D02*
X127692294Y-83017219D01*
X127692294Y-83017219D02*
X127603008Y-82969600D01*
X127603008Y-82969600D02*
X127561341Y-82921980D01*
X127561341Y-82921980D02*
X127525627Y-82826742D01*
X127525627Y-82826742D02*
X127561341Y-82541028D01*
X127561341Y-82541028D02*
X127620865Y-82445790D01*
X127620865Y-82445790D02*
X127674436Y-82398171D01*
X127674436Y-82398171D02*
X127775627Y-82350552D01*
X127775627Y-82350552D02*
X127966103Y-82350552D01*
X127966103Y-82350552D02*
X128055389Y-82398171D01*
X128966103Y-82350552D02*
X128882770Y-83017219D01*
X128537532Y-82350552D02*
X128472056Y-82874361D01*
X128472056Y-82874361D02*
X128507770Y-82969600D01*
X128507770Y-82969600D02*
X128597056Y-83017219D01*
X128597056Y-83017219D02*
X128739913Y-83017219D01*
X128739913Y-83017219D02*
X128841103Y-82969600D01*
X128841103Y-82969600D02*
X128894675Y-82921980D01*
D13*
X144109580Y-72166666D02*
X144157200Y-72214285D01*
X144157200Y-72214285D02*
X144204819Y-72357142D01*
X144204819Y-72357142D02*
X144204819Y-72452380D01*
X144204819Y-72452380D02*
X144157200Y-72595237D01*
X144157200Y-72595237D02*
X144061961Y-72690475D01*
X144061961Y-72690475D02*
X143966723Y-72738094D01*
X143966723Y-72738094D02*
X143776247Y-72785713D01*
X143776247Y-72785713D02*
X143633390Y-72785713D01*
X143633390Y-72785713D02*
X143442914Y-72738094D01*
X143442914Y-72738094D02*
X143347676Y-72690475D01*
X143347676Y-72690475D02*
X143252438Y-72595237D01*
X143252438Y-72595237D02*
X143204819Y-72452380D01*
X143204819Y-72452380D02*
X143204819Y-72357142D01*
X143204819Y-72357142D02*
X143252438Y-72214285D01*
X143252438Y-72214285D02*
X143300057Y-72166666D01*
X143204819Y-71833332D02*
X143204819Y-71214285D01*
X143204819Y-71214285D02*
X143585771Y-71547618D01*
X143585771Y-71547618D02*
X143585771Y-71404761D01*
X143585771Y-71404761D02*
X143633390Y-71309523D01*
X143633390Y-71309523D02*
X143681009Y-71261904D01*
X143681009Y-71261904D02*
X143776247Y-71214285D01*
X143776247Y-71214285D02*
X144014342Y-71214285D01*
X144014342Y-71214285D02*
X144109580Y-71261904D01*
X144109580Y-71261904D02*
X144157200Y-71309523D01*
X144157200Y-71309523D02*
X144204819Y-71404761D01*
X144204819Y-71404761D02*
X144204819Y-71690475D01*
X144204819Y-71690475D02*
X144157200Y-71785713D01*
X144157200Y-71785713D02*
X144109580Y-71833332D01*
D14*
X120660237Y-69024318D02*
X120660237Y-67754318D01*
X121990714Y-68903365D02*
X121930238Y-68963842D01*
X121930238Y-68963842D02*
X121748809Y-69024318D01*
X121748809Y-69024318D02*
X121627857Y-69024318D01*
X121627857Y-69024318D02*
X121446428Y-68963842D01*
X121446428Y-68963842D02*
X121325476Y-68842889D01*
X121325476Y-68842889D02*
X121264999Y-68721937D01*
X121264999Y-68721937D02*
X121204523Y-68480032D01*
X121204523Y-68480032D02*
X121204523Y-68298603D01*
X121204523Y-68298603D02*
X121264999Y-68056699D01*
X121264999Y-68056699D02*
X121325476Y-67935746D01*
X121325476Y-67935746D02*
X121446428Y-67814794D01*
X121446428Y-67814794D02*
X121627857Y-67754318D01*
X121627857Y-67754318D02*
X121748809Y-67754318D01*
X121748809Y-67754318D02*
X121930238Y-67814794D01*
X121930238Y-67814794D02*
X121990714Y-67875270D01*
X123200238Y-69024318D02*
X122474523Y-69024318D01*
X122837380Y-69024318D02*
X122837380Y-67754318D01*
X122837380Y-67754318D02*
X122716428Y-67935746D01*
X122716428Y-67935746D02*
X122595476Y-68056699D01*
X122595476Y-68056699D02*
X122474523Y-68117175D01*
D13*
X147416667Y-62907200D02*
X147559524Y-62954819D01*
X147559524Y-62954819D02*
X147797619Y-62954819D01*
X147797619Y-62954819D02*
X147892857Y-62907200D01*
X147892857Y-62907200D02*
X147940476Y-62859580D01*
X147940476Y-62859580D02*
X147988095Y-62764342D01*
X147988095Y-62764342D02*
X147988095Y-62669104D01*
X147988095Y-62669104D02*
X147940476Y-62573866D01*
X147940476Y-62573866D02*
X147892857Y-62526247D01*
X147892857Y-62526247D02*
X147797619Y-62478628D01*
X147797619Y-62478628D02*
X147607143Y-62431009D01*
X147607143Y-62431009D02*
X147511905Y-62383390D01*
X147511905Y-62383390D02*
X147464286Y-62335771D01*
X147464286Y-62335771D02*
X147416667Y-62240533D01*
X147416667Y-62240533D02*
X147416667Y-62145295D01*
X147416667Y-62145295D02*
X147464286Y-62050057D01*
X147464286Y-62050057D02*
X147511905Y-62002438D01*
X147511905Y-62002438D02*
X147607143Y-61954819D01*
X147607143Y-61954819D02*
X147845238Y-61954819D01*
X147845238Y-61954819D02*
X147988095Y-62002438D01*
X148321429Y-61954819D02*
X148559524Y-62954819D01*
X148559524Y-62954819D02*
X148750000Y-62240533D01*
X148750000Y-62240533D02*
X148940476Y-62954819D01*
X148940476Y-62954819D02*
X149178572Y-61954819D01*
X149511905Y-62050057D02*
X149559524Y-62002438D01*
X149559524Y-62002438D02*
X149654762Y-61954819D01*
X149654762Y-61954819D02*
X149892857Y-61954819D01*
X149892857Y-61954819D02*
X149988095Y-62002438D01*
X149988095Y-62002438D02*
X150035714Y-62050057D01*
X150035714Y-62050057D02*
X150083333Y-62145295D01*
X150083333Y-62145295D02*
X150083333Y-62240533D01*
X150083333Y-62240533D02*
X150035714Y-62383390D01*
X150035714Y-62383390D02*
X149464286Y-62954819D01*
X149464286Y-62954819D02*
X150083333Y-62954819D01*
X96359580Y-70166666D02*
X96407200Y-70214285D01*
X96407200Y-70214285D02*
X96454819Y-70357142D01*
X96454819Y-70357142D02*
X96454819Y-70452380D01*
X96454819Y-70452380D02*
X96407200Y-70595237D01*
X96407200Y-70595237D02*
X96311961Y-70690475D01*
X96311961Y-70690475D02*
X96216723Y-70738094D01*
X96216723Y-70738094D02*
X96026247Y-70785713D01*
X96026247Y-70785713D02*
X95883390Y-70785713D01*
X95883390Y-70785713D02*
X95692914Y-70738094D01*
X95692914Y-70738094D02*
X95597676Y-70690475D01*
X95597676Y-70690475D02*
X95502438Y-70595237D01*
X95502438Y-70595237D02*
X95454819Y-70452380D01*
X95454819Y-70452380D02*
X95454819Y-70357142D01*
X95454819Y-70357142D02*
X95502438Y-70214285D01*
X95502438Y-70214285D02*
X95550057Y-70166666D01*
X95454819Y-69261904D02*
X95454819Y-69738094D01*
X95454819Y-69738094D02*
X95931009Y-69785713D01*
X95931009Y-69785713D02*
X95883390Y-69738094D01*
X95883390Y-69738094D02*
X95835771Y-69642856D01*
X95835771Y-69642856D02*
X95835771Y-69404761D01*
X95835771Y-69404761D02*
X95883390Y-69309523D01*
X95883390Y-69309523D02*
X95931009Y-69261904D01*
X95931009Y-69261904D02*
X96026247Y-69214285D01*
X96026247Y-69214285D02*
X96264342Y-69214285D01*
X96264342Y-69214285D02*
X96359580Y-69261904D01*
X96359580Y-69261904D02*
X96407200Y-69309523D01*
X96407200Y-69309523D02*
X96454819Y-69404761D01*
X96454819Y-69404761D02*
X96454819Y-69642856D01*
X96454819Y-69642856D02*
X96407200Y-69738094D01*
X96407200Y-69738094D02*
X96359580Y-69785713D01*
X107833333Y-56454819D02*
X107500000Y-55978628D01*
X107261905Y-56454819D02*
X107261905Y-55454819D01*
X107261905Y-55454819D02*
X107642857Y-55454819D01*
X107642857Y-55454819D02*
X107738095Y-55502438D01*
X107738095Y-55502438D02*
X107785714Y-55550057D01*
X107785714Y-55550057D02*
X107833333Y-55645295D01*
X107833333Y-55645295D02*
X107833333Y-55788152D01*
X107833333Y-55788152D02*
X107785714Y-55883390D01*
X107785714Y-55883390D02*
X107738095Y-55931009D01*
X107738095Y-55931009D02*
X107642857Y-55978628D01*
X107642857Y-55978628D02*
X107261905Y-55978628D01*
X108214286Y-55550057D02*
X108261905Y-55502438D01*
X108261905Y-55502438D02*
X108357143Y-55454819D01*
X108357143Y-55454819D02*
X108595238Y-55454819D01*
X108595238Y-55454819D02*
X108690476Y-55502438D01*
X108690476Y-55502438D02*
X108738095Y-55550057D01*
X108738095Y-55550057D02*
X108785714Y-55645295D01*
X108785714Y-55645295D02*
X108785714Y-55740533D01*
X108785714Y-55740533D02*
X108738095Y-55883390D01*
X108738095Y-55883390D02*
X108166667Y-56454819D01*
X108166667Y-56454819D02*
X108785714Y-56454819D01*
X97109580Y-76264015D02*
X97157200Y-76311634D01*
X97157200Y-76311634D02*
X97204819Y-76454491D01*
X97204819Y-76454491D02*
X97204819Y-76549729D01*
X97204819Y-76549729D02*
X97157200Y-76692586D01*
X97157200Y-76692586D02*
X97061961Y-76787824D01*
X97061961Y-76787824D02*
X96966723Y-76835443D01*
X96966723Y-76835443D02*
X96776247Y-76883062D01*
X96776247Y-76883062D02*
X96633390Y-76883062D01*
X96633390Y-76883062D02*
X96442914Y-76835443D01*
X96442914Y-76835443D02*
X96347676Y-76787824D01*
X96347676Y-76787824D02*
X96252438Y-76692586D01*
X96252438Y-76692586D02*
X96204819Y-76549729D01*
X96204819Y-76549729D02*
X96204819Y-76454491D01*
X96204819Y-76454491D02*
X96252438Y-76311634D01*
X96252438Y-76311634D02*
X96300057Y-76264015D01*
X96300057Y-75883062D02*
X96252438Y-75835443D01*
X96252438Y-75835443D02*
X96204819Y-75740205D01*
X96204819Y-75740205D02*
X96204819Y-75502110D01*
X96204819Y-75502110D02*
X96252438Y-75406872D01*
X96252438Y-75406872D02*
X96300057Y-75359253D01*
X96300057Y-75359253D02*
X96395295Y-75311634D01*
X96395295Y-75311634D02*
X96490533Y-75311634D01*
X96490533Y-75311634D02*
X96633390Y-75359253D01*
X96633390Y-75359253D02*
X97204819Y-75930681D01*
X97204819Y-75930681D02*
X97204819Y-75311634D01*
D15*
X94330000Y-57250000D02*
X94330000Y-58950000D01*
X103670000Y-57250000D02*
X103670000Y-58950000D01*
X107170000Y-68670000D02*
X108500000Y-68670000D01*
X107170000Y-70000000D02*
X107170000Y-68670000D01*
X107170000Y-71270000D02*
X107170000Y-76410000D01*
X107170000Y-71270000D02*
X109830000Y-71270000D01*
X107170000Y-76410000D02*
X109830000Y-76410000D01*
X109830000Y-71270000D02*
X109830000Y-76410000D01*
X89170000Y-58230000D02*
X89170000Y-55630000D01*
X91830000Y-55630000D02*
X89170000Y-55630000D01*
X91830000Y-58230000D02*
X89170000Y-58230000D01*
X91830000Y-58230000D02*
X91830000Y-55630000D01*
X91830000Y-59500000D02*
X91830000Y-60830000D01*
X91830000Y-60830000D02*
X90500000Y-60830000D01*
X147130000Y-78170000D02*
X147130000Y-80830000D01*
X152270000Y-78170000D02*
X147130000Y-78170000D01*
X152270000Y-78170000D02*
X152270000Y-80830000D01*
X152270000Y-80830000D02*
X147130000Y-80830000D01*
X153540000Y-78170000D02*
X154870000Y-78170000D01*
X154870000Y-78170000D02*
X154870000Y-79500000D01*
X139905000Y-78170000D02*
X139905000Y-80830000D01*
X142505000Y-78170000D02*
X139905000Y-78170000D01*
X142505000Y-78170000D02*
X142505000Y-80830000D01*
X142505000Y-80830000D02*
X139905000Y-80830000D01*
X143775000Y-78170000D02*
X145105000Y-78170000D01*
X145105000Y-78170000D02*
X145105000Y-79500000D01*
X137460000Y-73481000D02*
X134695000Y-73481000D01*
X137460000Y-73521000D02*
X134710000Y-73521000D01*
X137460000Y-73561000D02*
X134726000Y-73561000D01*
X137460000Y-73601000D02*
X134743000Y-73601000D01*
X137460000Y-73641000D02*
X134760000Y-73641000D01*
X137460000Y-73681000D02*
X134778000Y-73681000D01*
X137460000Y-73721000D02*
X134796000Y-73721000D01*
X137460000Y-73761000D02*
X134814000Y-73761000D01*
X137460000Y-73801000D02*
X134834000Y-73801000D01*
X137460000Y-73841000D02*
X134853000Y-73841000D01*
X137460000Y-73881000D02*
X134873000Y-73881000D01*
X137460000Y-73921000D02*
X134894000Y-73921000D01*
X137460000Y-73961000D02*
X134916000Y-73961000D01*
X137460000Y-74001000D02*
X134938000Y-74001000D01*
X137460000Y-74041000D02*
X134960000Y-74041000D01*
X137460000Y-74081000D02*
X134983000Y-74081000D01*
X137460000Y-74121000D02*
X135007000Y-74121000D01*
X137460000Y-74161000D02*
X135031000Y-74161000D01*
X137460000Y-74201000D02*
X135056000Y-74201000D01*
X137460000Y-74241000D02*
X135082000Y-74241000D01*
X137460000Y-74281000D02*
X135108000Y-74281000D01*
X137460000Y-74321000D02*
X135135000Y-74321000D01*
X137460000Y-74361000D02*
X135162000Y-74361000D01*
X137460000Y-74401000D02*
X135191000Y-74401000D01*
X137460000Y-74441000D02*
X135220000Y-74441000D01*
X137460000Y-74481000D02*
X135250000Y-74481000D01*
X137460000Y-74521000D02*
X135280000Y-74521000D01*
X137460000Y-74561000D02*
X135311000Y-74561000D01*
X137460000Y-74601000D02*
X135344000Y-74601000D01*
X137460000Y-74641000D02*
X135376000Y-74641000D01*
X137460000Y-74681000D02*
X135410000Y-74681000D01*
X137460000Y-74721000D02*
X135445000Y-74721000D01*
X137460000Y-74761000D02*
X135481000Y-74761000D01*
X137460000Y-74801000D02*
X135517000Y-74801000D01*
X137460000Y-74841000D02*
X135555000Y-74841000D01*
X137460000Y-74881000D02*
X135593000Y-74881000D01*
X137460000Y-74921000D02*
X135633000Y-74921000D01*
X137460000Y-74961000D02*
X135674000Y-74961000D01*
X137460000Y-75001000D02*
X135716000Y-75001000D01*
X137460000Y-75041000D02*
X135759000Y-75041000D01*
X137460000Y-75081000D02*
X135803000Y-75081000D01*
X137460000Y-75121000D02*
X135849000Y-75121000D01*
X137460000Y-75161000D02*
X135896000Y-75161000D01*
X137460000Y-75201000D02*
X135944000Y-75201000D01*
X137460000Y-75241000D02*
X135995000Y-75241000D01*
X137460000Y-75281000D02*
X136046000Y-75281000D01*
X137460000Y-75321000D02*
X136100000Y-75321000D01*
X137460000Y-75361000D02*
X136155000Y-75361000D01*
X137460000Y-75401000D02*
X136213000Y-75401000D01*
X137460000Y-75441000D02*
X136272000Y-75441000D01*
X137460000Y-75481000D02*
X136334000Y-75481000D01*
X137460000Y-75521000D02*
X136398000Y-75521000D01*
X139033000Y-76081000D02*
X137967000Y-76081000D01*
X139268000Y-76041000D02*
X137732000Y-76041000D01*
X139448000Y-76001000D02*
X137552000Y-76001000D01*
X139598000Y-75961000D02*
X137402000Y-75961000D01*
X139729000Y-75921000D02*
X137271000Y-75921000D01*
X139846000Y-75881000D02*
X137154000Y-75881000D01*
X139953000Y-75841000D02*
X137047000Y-75841000D01*
X140052000Y-75801000D02*
X136948000Y-75801000D01*
X140145000Y-75761000D02*
X136855000Y-75761000D01*
X140231000Y-75721000D02*
X136769000Y-75721000D01*
X140313000Y-75681000D02*
X136687000Y-75681000D01*
X140390000Y-75641000D02*
X136610000Y-75641000D01*
X140464000Y-75601000D02*
X136536000Y-75601000D01*
X140534000Y-75561000D02*
X136466000Y-75561000D01*
X140602000Y-75521000D02*
X139540000Y-75521000D01*
X140666000Y-75481000D02*
X139540000Y-75481000D01*
X140728000Y-75441000D02*
X139540000Y-75441000D01*
X140787000Y-75401000D02*
X139540000Y-75401000D01*
X140815000Y-67590302D02*
X140815000Y-68390302D01*
X140845000Y-75361000D02*
X139540000Y-75361000D01*
X140900000Y-75321000D02*
X139540000Y-75321000D01*
X140954000Y-75281000D02*
X139540000Y-75281000D01*
X141005000Y-75241000D02*
X139540000Y-75241000D01*
X141056000Y-75201000D02*
X139540000Y-75201000D01*
X141104000Y-75161000D02*
X139540000Y-75161000D01*
X141151000Y-75121000D02*
X139540000Y-75121000D01*
X141197000Y-75081000D02*
X139540000Y-75081000D01*
X141215000Y-67990302D02*
X140415000Y-67990302D01*
X141241000Y-75041000D02*
X139540000Y-75041000D01*
X141284000Y-75001000D02*
X139540000Y-75001000D01*
X141326000Y-74961000D02*
X139540000Y-74961000D01*
X141367000Y-74921000D02*
X139540000Y-74921000D01*
X141407000Y-74881000D02*
X139540000Y-74881000D01*
X141445000Y-74841000D02*
X139540000Y-74841000D01*
X141483000Y-74801000D02*
X139540000Y-74801000D01*
X141519000Y-74761000D02*
X139540000Y-74761000D01*
X141555000Y-74721000D02*
X139540000Y-74721000D01*
X141590000Y-74681000D02*
X139540000Y-74681000D01*
X141624000Y-74641000D02*
X139540000Y-74641000D01*
X141656000Y-74601000D02*
X139540000Y-74601000D01*
X141689000Y-74561000D02*
X139540000Y-74561000D01*
X141720000Y-74521000D02*
X139540000Y-74521000D01*
X141750000Y-74481000D02*
X139540000Y-74481000D01*
X141780000Y-74441000D02*
X139540000Y-74441000D01*
X141809000Y-74401000D02*
X139540000Y-74401000D01*
X141838000Y-74361000D02*
X139540000Y-74361000D01*
X141865000Y-74321000D02*
X139540000Y-74321000D01*
X141892000Y-74281000D02*
X139540000Y-74281000D01*
X141918000Y-74241000D02*
X139540000Y-74241000D01*
X141944000Y-74201000D02*
X139540000Y-74201000D01*
X141969000Y-74161000D02*
X139540000Y-74161000D01*
X141993000Y-74121000D02*
X139540000Y-74121000D01*
X142017000Y-74081000D02*
X139540000Y-74081000D01*
X142040000Y-74041000D02*
X139540000Y-74041000D01*
X142062000Y-74001000D02*
X139540000Y-74001000D01*
X142084000Y-73961000D02*
X139540000Y-73961000D01*
X142106000Y-73921000D02*
X139540000Y-73921000D01*
X142127000Y-73881000D02*
X139540000Y-73881000D01*
X142147000Y-73841000D02*
X139540000Y-73841000D01*
X142166000Y-73801000D02*
X139540000Y-73801000D01*
X142186000Y-73761000D02*
X139540000Y-73761000D01*
X142204000Y-73721000D02*
X139540000Y-73721000D01*
X142222000Y-73681000D02*
X139540000Y-73681000D01*
X142240000Y-73641000D02*
X139540000Y-73641000D01*
X142257000Y-73601000D02*
X139540000Y-73601000D01*
X142274000Y-73561000D02*
X139540000Y-73561000D01*
X142290000Y-73521000D02*
X139540000Y-73521000D01*
X142305000Y-73481000D02*
X139540000Y-73481000D01*
X142321000Y-73441000D02*
X134679000Y-73441000D01*
X142335000Y-73401000D02*
X134665000Y-73401000D01*
X142350000Y-73361000D02*
X134650000Y-73361000D01*
X142363000Y-73321000D02*
X134637000Y-73321000D01*
X142377000Y-73281000D02*
X134623000Y-73281000D01*
X142389000Y-73241000D02*
X134611000Y-73241000D01*
X142402000Y-73201000D02*
X134598000Y-73201000D01*
X142414000Y-73161000D02*
X134586000Y-73161000D01*
X142425000Y-73121000D02*
X134575000Y-73121000D01*
X142436000Y-73081000D02*
X134564000Y-73081000D01*
X142447000Y-73041000D02*
X134553000Y-73041000D01*
X142457000Y-73001000D02*
X134543000Y-73001000D01*
X142467000Y-72961000D02*
X134533000Y-72961000D01*
X142476000Y-72921000D02*
X134524000Y-72921000D01*
X142485000Y-72881000D02*
X134515000Y-72881000D01*
X142494000Y-72841000D02*
X134506000Y-72841000D01*
X142502000Y-72801000D02*
X134498000Y-72801000D01*
X142510000Y-72761000D02*
X134490000Y-72761000D01*
X142517000Y-72721000D02*
X134483000Y-72721000D01*
X142524000Y-72680000D02*
X134476000Y-72680000D01*
X142530000Y-72640000D02*
X134470000Y-72640000D01*
X142537000Y-72600000D02*
X134463000Y-72600000D01*
X142542000Y-72560000D02*
X134458000Y-72560000D01*
X142548000Y-72520000D02*
X134452000Y-72520000D01*
X142552000Y-72480000D02*
X134448000Y-72480000D01*
X142557000Y-72440000D02*
X134443000Y-72440000D01*
X142561000Y-72400000D02*
X134439000Y-72400000D01*
X142565000Y-72360000D02*
X134435000Y-72360000D01*
X142568000Y-72320000D02*
X134432000Y-72320000D01*
X142571000Y-72280000D02*
X134429000Y-72280000D01*
X142574000Y-72240000D02*
X134426000Y-72240000D01*
X142576000Y-72200000D02*
X134424000Y-72200000D01*
X142577000Y-72160000D02*
X134423000Y-72160000D01*
X142579000Y-72120000D02*
X134421000Y-72120000D01*
X142580000Y-72000000D02*
X134420000Y-72000000D01*
X142580000Y-72040000D02*
X134420000Y-72040000D01*
X142580000Y-72080000D02*
X134420000Y-72080000D01*
X142620000Y-72000000D02*
G75*
G02*
X134380000Y-72000000I-4120000J0D01*
G01*
X134380000Y-72000000D02*
G75*
G02*
X142620000Y-72000000I4120000J0D01*
G01*
D16*
X112500000Y-64500000D02*
X112500000Y-64500000D01*
X112600000Y-64500000D02*
X112600000Y-64500000D01*
D11*
X113900000Y-56000000D02*
X129900000Y-56000000D01*
X113900000Y-63800000D02*
X113900000Y-56000000D01*
X113900000Y-80000000D02*
X113900000Y-79200000D01*
X116100000Y-80000000D02*
X113900000Y-80000000D01*
X129900000Y-56000000D02*
X129900000Y-63800000D01*
X129900000Y-79200000D02*
X129900000Y-80000000D01*
X129900000Y-80000000D02*
X127700000Y-80000000D01*
D16*
X112500000Y-64500000D02*
G75*
G02*
X112600000Y-64500000I50000J0D01*
G01*
X112600000Y-64500000D02*
G75*
G02*
X112500000Y-64500000I-50000J0D01*
G01*
D15*
X144890000Y-56100000D02*
X144890000Y-58200000D01*
X144890000Y-60800000D02*
X144890000Y-61310000D01*
X144890000Y-61310000D02*
X145410000Y-61310000D01*
X145410000Y-57970000D02*
X145410000Y-58200000D01*
X145410000Y-57970000D02*
X145950000Y-57970000D01*
X145410000Y-60800000D02*
X145410000Y-61310000D01*
X147050000Y-57970000D02*
X150450000Y-57970000D01*
X151550000Y-57970000D02*
X152090000Y-57970000D01*
X152090000Y-57970000D02*
X152090000Y-58200000D01*
X152090000Y-60800000D02*
X152090000Y-61310000D01*
X152090000Y-61310000D02*
X152610000Y-61310000D01*
X152610000Y-56100000D02*
X152610000Y-58200000D01*
X152610000Y-60800000D02*
X152610000Y-61310000D01*
X90460000Y-68078349D02*
X87695000Y-68078349D01*
X90460000Y-68118349D02*
X87710000Y-68118349D01*
X90460000Y-68158349D02*
X87726000Y-68158349D01*
X90460000Y-68198349D02*
X87743000Y-68198349D01*
X90460000Y-68238349D02*
X87760000Y-68238349D01*
X90460000Y-68278349D02*
X87778000Y-68278349D01*
X90460000Y-68318349D02*
X87796000Y-68318349D01*
X90460000Y-68358349D02*
X87814000Y-68358349D01*
X90460000Y-68398349D02*
X87834000Y-68398349D01*
X90460000Y-68438349D02*
X87853000Y-68438349D01*
X90460000Y-68478349D02*
X87873000Y-68478349D01*
X90460000Y-68518349D02*
X87894000Y-68518349D01*
X90460000Y-68558349D02*
X87916000Y-68558349D01*
X90460000Y-68598349D02*
X87938000Y-68598349D01*
X90460000Y-68638349D02*
X87960000Y-68638349D01*
X90460000Y-68678349D02*
X87983000Y-68678349D01*
X90460000Y-68718349D02*
X88007000Y-68718349D01*
X90460000Y-68758349D02*
X88031000Y-68758349D01*
X90460000Y-68798349D02*
X88056000Y-68798349D01*
X90460000Y-68838349D02*
X88082000Y-68838349D01*
X90460000Y-68878349D02*
X88108000Y-68878349D01*
X90460000Y-68918349D02*
X88135000Y-68918349D01*
X90460000Y-68958349D02*
X88162000Y-68958349D01*
X90460000Y-68998349D02*
X88191000Y-68998349D01*
X90460000Y-69038349D02*
X88220000Y-69038349D01*
X90460000Y-69078349D02*
X88250000Y-69078349D01*
X90460000Y-69118349D02*
X88280000Y-69118349D01*
X90460000Y-69158349D02*
X88311000Y-69158349D01*
X90460000Y-69198349D02*
X88344000Y-69198349D01*
X90460000Y-69238349D02*
X88376000Y-69238349D01*
X90460000Y-69278349D02*
X88410000Y-69278349D01*
X90460000Y-69318349D02*
X88445000Y-69318349D01*
X90460000Y-69358349D02*
X88481000Y-69358349D01*
X90460000Y-69398349D02*
X88517000Y-69398349D01*
X90460000Y-69438349D02*
X88555000Y-69438349D01*
X90460000Y-69478349D02*
X88593000Y-69478349D01*
X90460000Y-69518349D02*
X88633000Y-69518349D01*
X90460000Y-69558349D02*
X88674000Y-69558349D01*
X90460000Y-69598349D02*
X88716000Y-69598349D01*
X90460000Y-69638349D02*
X88759000Y-69638349D01*
X90460000Y-69678349D02*
X88803000Y-69678349D01*
X90460000Y-69718349D02*
X88849000Y-69718349D01*
X90460000Y-69758349D02*
X88896000Y-69758349D01*
X90460000Y-69798349D02*
X88944000Y-69798349D01*
X90460000Y-69838349D02*
X88995000Y-69838349D01*
X90460000Y-69878349D02*
X89046000Y-69878349D01*
X90460000Y-69918349D02*
X89100000Y-69918349D01*
X90460000Y-69958349D02*
X89155000Y-69958349D01*
X90460000Y-69998349D02*
X89213000Y-69998349D01*
X90460000Y-70038349D02*
X89272000Y-70038349D01*
X90460000Y-70078349D02*
X89334000Y-70078349D01*
X90460000Y-70118349D02*
X89398000Y-70118349D01*
X92033000Y-70678349D02*
X90967000Y-70678349D01*
X92268000Y-70638349D02*
X90732000Y-70638349D01*
X92448000Y-70598349D02*
X90552000Y-70598349D01*
X92598000Y-70558349D02*
X90402000Y-70558349D01*
X92729000Y-70518349D02*
X90271000Y-70518349D01*
X92846000Y-70478349D02*
X90154000Y-70478349D01*
X92953000Y-70438349D02*
X90047000Y-70438349D01*
X93052000Y-70398349D02*
X89948000Y-70398349D01*
X93145000Y-70358349D02*
X89855000Y-70358349D01*
X93231000Y-70318349D02*
X89769000Y-70318349D01*
X93313000Y-70278349D02*
X89687000Y-70278349D01*
X93390000Y-70238349D02*
X89610000Y-70238349D01*
X93464000Y-70198349D02*
X89536000Y-70198349D01*
X93534000Y-70158349D02*
X89466000Y-70158349D01*
X93602000Y-70118349D02*
X92540000Y-70118349D01*
X93666000Y-70078349D02*
X92540000Y-70078349D01*
X93728000Y-70038349D02*
X92540000Y-70038349D01*
X93787000Y-69998349D02*
X92540000Y-69998349D01*
X93815000Y-62187651D02*
X93815000Y-62987651D01*
X93845000Y-69958349D02*
X92540000Y-69958349D01*
X93900000Y-69918349D02*
X92540000Y-69918349D01*
X93954000Y-69878349D02*
X92540000Y-69878349D01*
X94005000Y-69838349D02*
X92540000Y-69838349D01*
X94056000Y-69798349D02*
X92540000Y-69798349D01*
X94104000Y-69758349D02*
X92540000Y-69758349D01*
X94151000Y-69718349D02*
X92540000Y-69718349D01*
X94197000Y-69678349D02*
X92540000Y-69678349D01*
X94215000Y-62587651D02*
X93415000Y-62587651D01*
X94241000Y-69638349D02*
X92540000Y-69638349D01*
X94284000Y-69598349D02*
X92540000Y-69598349D01*
X94326000Y-69558349D02*
X92540000Y-69558349D01*
X94367000Y-69518349D02*
X92540000Y-69518349D01*
X94407000Y-69478349D02*
X92540000Y-69478349D01*
X94445000Y-69438349D02*
X92540000Y-69438349D01*
X94483000Y-69398349D02*
X92540000Y-69398349D01*
X94519000Y-69358349D02*
X92540000Y-69358349D01*
X94555000Y-69318349D02*
X92540000Y-69318349D01*
X94590000Y-69278349D02*
X92540000Y-69278349D01*
X94624000Y-69238349D02*
X92540000Y-69238349D01*
X94656000Y-69198349D02*
X92540000Y-69198349D01*
X94689000Y-69158349D02*
X92540000Y-69158349D01*
X94720000Y-69118349D02*
X92540000Y-69118349D01*
X94750000Y-69078349D02*
X92540000Y-69078349D01*
X94780000Y-69038349D02*
X92540000Y-69038349D01*
X94809000Y-68998349D02*
X92540000Y-68998349D01*
X94838000Y-68958349D02*
X92540000Y-68958349D01*
X94865000Y-68918349D02*
X92540000Y-68918349D01*
X94892000Y-68878349D02*
X92540000Y-68878349D01*
X94918000Y-68838349D02*
X92540000Y-68838349D01*
X94944000Y-68798349D02*
X92540000Y-68798349D01*
X94969000Y-68758349D02*
X92540000Y-68758349D01*
X94993000Y-68718349D02*
X92540000Y-68718349D01*
X95017000Y-68678349D02*
X92540000Y-68678349D01*
X95040000Y-68638349D02*
X92540000Y-68638349D01*
X95062000Y-68598349D02*
X92540000Y-68598349D01*
X95084000Y-68558349D02*
X92540000Y-68558349D01*
X95106000Y-68518349D02*
X92540000Y-68518349D01*
X95127000Y-68478349D02*
X92540000Y-68478349D01*
X95147000Y-68438349D02*
X92540000Y-68438349D01*
X95166000Y-68398349D02*
X92540000Y-68398349D01*
X95186000Y-68358349D02*
X92540000Y-68358349D01*
X95204000Y-68318349D02*
X92540000Y-68318349D01*
X95222000Y-68278349D02*
X92540000Y-68278349D01*
X95240000Y-68238349D02*
X92540000Y-68238349D01*
X95257000Y-68198349D02*
X92540000Y-68198349D01*
X95274000Y-68158349D02*
X92540000Y-68158349D01*
X95290000Y-68118349D02*
X92540000Y-68118349D01*
X95305000Y-68078349D02*
X92540000Y-68078349D01*
X95321000Y-68038349D02*
X87679000Y-68038349D01*
X95335000Y-67998349D02*
X87665000Y-67998349D01*
X95350000Y-67958349D02*
X87650000Y-67958349D01*
X95363000Y-67918349D02*
X87637000Y-67918349D01*
X95377000Y-67878349D02*
X87623000Y-67878349D01*
X95389000Y-67838349D02*
X87611000Y-67838349D01*
X95402000Y-67798349D02*
X87598000Y-67798349D01*
X95414000Y-67758349D02*
X87586000Y-67758349D01*
X95425000Y-67718349D02*
X87575000Y-67718349D01*
X95436000Y-67678349D02*
X87564000Y-67678349D01*
X95447000Y-67638349D02*
X87553000Y-67638349D01*
X95457000Y-67598349D02*
X87543000Y-67598349D01*
X95467000Y-67558349D02*
X87533000Y-67558349D01*
X95476000Y-67518349D02*
X87524000Y-67518349D01*
X95485000Y-67478349D02*
X87515000Y-67478349D01*
X95494000Y-67438349D02*
X87506000Y-67438349D01*
X95502000Y-67398349D02*
X87498000Y-67398349D01*
X95510000Y-67358349D02*
X87490000Y-67358349D01*
X95517000Y-67318349D02*
X87483000Y-67318349D01*
X95524000Y-67277349D02*
X87476000Y-67277349D01*
X95530000Y-67237349D02*
X87470000Y-67237349D01*
X95537000Y-67197349D02*
X87463000Y-67197349D01*
X95542000Y-67157349D02*
X87458000Y-67157349D01*
X95548000Y-67117349D02*
X87452000Y-67117349D01*
X95552000Y-67077349D02*
X87448000Y-67077349D01*
X95557000Y-67037349D02*
X87443000Y-67037349D01*
X95561000Y-66997349D02*
X87439000Y-66997349D01*
X95565000Y-66957349D02*
X87435000Y-66957349D01*
X95568000Y-66917349D02*
X87432000Y-66917349D01*
X95571000Y-66877349D02*
X87429000Y-66877349D01*
X95574000Y-66837349D02*
X87426000Y-66837349D01*
X95576000Y-66797349D02*
X87424000Y-66797349D01*
X95577000Y-66757349D02*
X87423000Y-66757349D01*
X95579000Y-66717349D02*
X87421000Y-66717349D01*
X95580000Y-66597349D02*
X87420000Y-66597349D01*
X95580000Y-66637349D02*
X87420000Y-66637349D01*
X95580000Y-66677349D02*
X87420000Y-66677349D01*
X95620000Y-66597349D02*
G75*
G02*
X87380000Y-66597349I-4120000J0D01*
G01*
X87380000Y-66597349D02*
G75*
G02*
X95620000Y-66597349I4120000J0D01*
G01*
X109400000Y-56900000D02*
X106600000Y-56900000D01*
X109400000Y-61100000D02*
X106600000Y-61100000D01*
X106600000Y-61100000D02*
G75*
G02*
X106613963Y-56890758I1400000J2100000D01*
G01*
X109400000Y-56900000D02*
G75*
G02*
X109386037Y-61109242I-1400000J-2100000D01*
G01*
X133895000Y-59830000D02*
X133895000Y-58500000D01*
X135225000Y-59830000D02*
X133895000Y-59830000D01*
X136495000Y-57170000D02*
X139095000Y-57170000D01*
X136495000Y-59830000D02*
X136495000Y-57170000D01*
X136495000Y-59830000D02*
X139095000Y-59830000D01*
X139095000Y-59830000D02*
X139095000Y-57170000D01*
D17*
X138152600Y-81958752D02*
X138169948Y-81966334D01*
X138211356Y-81999128D01*
X138246765Y-82046547D01*
X138268664Y-82097151D01*
X138272229Y-82122098D01*
X138260279Y-82156927D01*
X138234067Y-82175357D01*
X138205964Y-82186516D01*
X138193095Y-82188572D01*
X138186829Y-82173649D01*
X138174456Y-82141175D01*
X138169028Y-82126502D01*
X138138590Y-82075744D01*
X138094520Y-82050427D01*
X138038010Y-82051206D01*
X138033825Y-82052203D01*
X138003655Y-82066507D01*
X137981476Y-82094393D01*
X137966327Y-82139287D01*
X137957250Y-82204615D01*
X137953286Y-82293804D01*
X137952914Y-82341261D01*
X137952730Y-82416071D01*
X137951522Y-82467069D01*
X137948309Y-82499471D01*
X137942109Y-82518495D01*
X137931940Y-82529356D01*
X137916819Y-82537272D01*
X137915946Y-82537670D01*
X137886828Y-82549981D01*
X137872403Y-82554514D01*
X137870186Y-82540809D01*
X137868289Y-82502925D01*
X137866847Y-82445715D01*
X137865998Y-82374027D01*
X137865829Y-82321565D01*
X137866692Y-82220047D01*
X137870070Y-82143032D01*
X137877142Y-82086023D01*
X137889088Y-82044526D01*
X137907090Y-82014043D01*
X137932327Y-81990080D01*
X137957247Y-81973355D01*
X138017171Y-81951097D01*
X138086911Y-81946076D01*
X138152600Y-81958752D01*
G36*
X138152600Y-81958752D02*
G01*
X138169948Y-81966334D01*
X138211356Y-81999128D01*
X138246765Y-82046547D01*
X138268664Y-82097151D01*
X138272229Y-82122098D01*
X138260279Y-82156927D01*
X138234067Y-82175357D01*
X138205964Y-82186516D01*
X138193095Y-82188572D01*
X138186829Y-82173649D01*
X138174456Y-82141175D01*
X138169028Y-82126502D01*
X138138590Y-82075744D01*
X138094520Y-82050427D01*
X138038010Y-82051206D01*
X138033825Y-82052203D01*
X138003655Y-82066507D01*
X137981476Y-82094393D01*
X137966327Y-82139287D01*
X137957250Y-82204615D01*
X137953286Y-82293804D01*
X137952914Y-82341261D01*
X137952730Y-82416071D01*
X137951522Y-82467069D01*
X137948309Y-82499471D01*
X137942109Y-82518495D01*
X137931940Y-82529356D01*
X137916819Y-82537272D01*
X137915946Y-82537670D01*
X137886828Y-82549981D01*
X137872403Y-82554514D01*
X137870186Y-82540809D01*
X137868289Y-82502925D01*
X137866847Y-82445715D01*
X137865998Y-82374027D01*
X137865829Y-82321565D01*
X137866692Y-82220047D01*
X137870070Y-82143032D01*
X137877142Y-82086023D01*
X137889088Y-82044526D01*
X137907090Y-82014043D01*
X137932327Y-81990080D01*
X137957247Y-81973355D01*
X138017171Y-81951097D01*
X138086911Y-81946076D01*
X138152600Y-81958752D01*
G37*
X134216093Y-81927780D02*
X134262672Y-81954723D01*
X134295057Y-81981466D01*
X134318742Y-82009484D01*
X134335059Y-82043748D01*
X134345339Y-82089227D01*
X134350914Y-82150892D01*
X134353116Y-82233711D01*
X134353371Y-82293246D01*
X134353371Y-82512391D01*
X134291686Y-82540044D01*
X134230000Y-82567697D01*
X134222743Y-82327670D01*
X134219744Y-82238028D01*
X134216598Y-82172962D01*
X134212701Y-82128026D01*
X134207447Y-82098770D01*
X134200231Y-82080748D01*
X134190450Y-82069511D01*
X134187312Y-82067079D01*
X134139761Y-82048083D01*
X134091697Y-82055600D01*
X134063086Y-82075543D01*
X134051447Y-82089675D01*
X134043391Y-82108220D01*
X134038271Y-82136334D01*
X134035441Y-82179173D01*
X134034256Y-82241895D01*
X134034057Y-82307261D01*
X134034018Y-82389268D01*
X134032614Y-82447316D01*
X134027914Y-82486465D01*
X134017987Y-82511780D01*
X134000903Y-82528323D01*
X133974732Y-82541156D01*
X133939775Y-82554491D01*
X133901596Y-82569007D01*
X133906141Y-82311389D01*
X133907971Y-82218519D01*
X133910112Y-82149889D01*
X133913181Y-82100711D01*
X133917794Y-82066198D01*
X133924568Y-82041562D01*
X133934119Y-82022016D01*
X133945634Y-82004770D01*
X134001190Y-81949680D01*
X134068980Y-81917822D01*
X134142713Y-81910191D01*
X134216093Y-81927780D01*
G36*
X134216093Y-81927780D02*
G01*
X134262672Y-81954723D01*
X134295057Y-81981466D01*
X134318742Y-82009484D01*
X134335059Y-82043748D01*
X134345339Y-82089227D01*
X134350914Y-82150892D01*
X134353116Y-82233711D01*
X134353371Y-82293246D01*
X134353371Y-82512391D01*
X134291686Y-82540044D01*
X134230000Y-82567697D01*
X134222743Y-82327670D01*
X134219744Y-82238028D01*
X134216598Y-82172962D01*
X134212701Y-82128026D01*
X134207447Y-82098770D01*
X134200231Y-82080748D01*
X134190450Y-82069511D01*
X134187312Y-82067079D01*
X134139761Y-82048083D01*
X134091697Y-82055600D01*
X134063086Y-82075543D01*
X134051447Y-82089675D01*
X134043391Y-82108220D01*
X134038271Y-82136334D01*
X134035441Y-82179173D01*
X134034256Y-82241895D01*
X134034057Y-82307261D01*
X134034018Y-82389268D01*
X134032614Y-82447316D01*
X134027914Y-82486465D01*
X134017987Y-82511780D01*
X134000903Y-82528323D01*
X133974732Y-82541156D01*
X133939775Y-82554491D01*
X133901596Y-82569007D01*
X133906141Y-82311389D01*
X133907971Y-82218519D01*
X133910112Y-82149889D01*
X133913181Y-82100711D01*
X133917794Y-82066198D01*
X133924568Y-82041562D01*
X133934119Y-82022016D01*
X133945634Y-82004770D01*
X134001190Y-81949680D01*
X134068980Y-81917822D01*
X134142713Y-81910191D01*
X134216093Y-81927780D01*
G37*
X136029926Y-81949755D02*
X136095858Y-81974084D01*
X136149273Y-82017117D01*
X136170164Y-82047409D01*
X136192939Y-82102994D01*
X136192466Y-82143186D01*
X136168562Y-82170217D01*
X136159717Y-82174813D01*
X136121530Y-82189144D01*
X136102028Y-82185472D01*
X136095422Y-82161407D01*
X136095086Y-82148114D01*
X136082992Y-82099210D01*
X136051471Y-82064999D01*
X136007659Y-82048476D01*
X135958695Y-82052634D01*
X135918894Y-82074227D01*
X135905450Y-82086544D01*
X135895921Y-82101487D01*
X135889485Y-82124075D01*
X135885317Y-82159328D01*
X135882597Y-82212266D01*
X135880502Y-82287907D01*
X135879960Y-82311857D01*
X135877981Y-82393790D01*
X135875731Y-82451455D01*
X135872357Y-82489608D01*
X135867006Y-82513004D01*
X135858824Y-82526398D01*
X135846959Y-82534545D01*
X135839362Y-82538144D01*
X135807102Y-82550452D01*
X135788111Y-82554514D01*
X135781836Y-82540948D01*
X135778006Y-82499934D01*
X135776600Y-82430999D01*
X135777598Y-82333669D01*
X135777908Y-82318657D01*
X135780101Y-82229859D01*
X135782693Y-82165019D01*
X135786382Y-82119067D01*
X135791864Y-82086935D01*
X135799835Y-82063553D01*
X135810993Y-82043852D01*
X135816830Y-82035410D01*
X135850296Y-81998057D01*
X135887727Y-81969003D01*
X135892309Y-81966467D01*
X135959426Y-81946443D01*
X136029926Y-81949755D01*
G36*
X136029926Y-81949755D02*
G01*
X136095858Y-81974084D01*
X136149273Y-82017117D01*
X136170164Y-82047409D01*
X136192939Y-82102994D01*
X136192466Y-82143186D01*
X136168562Y-82170217D01*
X136159717Y-82174813D01*
X136121530Y-82189144D01*
X136102028Y-82185472D01*
X136095422Y-82161407D01*
X136095086Y-82148114D01*
X136082992Y-82099210D01*
X136051471Y-82064999D01*
X136007659Y-82048476D01*
X135958695Y-82052634D01*
X135918894Y-82074227D01*
X135905450Y-82086544D01*
X135895921Y-82101487D01*
X135889485Y-82124075D01*
X135885317Y-82159328D01*
X135882597Y-82212266D01*
X135880502Y-82287907D01*
X135879960Y-82311857D01*
X135877981Y-82393790D01*
X135875731Y-82451455D01*
X135872357Y-82489608D01*
X135867006Y-82513004D01*
X135858824Y-82526398D01*
X135846959Y-82534545D01*
X135839362Y-82538144D01*
X135807102Y-82550452D01*
X135788111Y-82554514D01*
X135781836Y-82540948D01*
X135778006Y-82499934D01*
X135776600Y-82430999D01*
X135777598Y-82333669D01*
X135777908Y-82318657D01*
X135780101Y-82229859D01*
X135782693Y-82165019D01*
X135786382Y-82119067D01*
X135791864Y-82086935D01*
X135799835Y-82063553D01*
X135810993Y-82043852D01*
X135816830Y-82035410D01*
X135850296Y-81998057D01*
X135887727Y-81969003D01*
X135892309Y-81966467D01*
X135959426Y-81946443D01*
X136029926Y-81949755D01*
G37*
X134875886Y-81851289D02*
X134880139Y-81910613D01*
X134885025Y-81945572D01*
X134891795Y-81960820D01*
X134901702Y-81961015D01*
X134904914Y-81959195D01*
X134947644Y-81946015D01*
X135003227Y-81946785D01*
X135059737Y-81960333D01*
X135095082Y-81977861D01*
X135131321Y-82005861D01*
X135157813Y-82037549D01*
X135175999Y-82077813D01*
X135187322Y-82131543D01*
X135193222Y-82203626D01*
X135195143Y-82298951D01*
X135195177Y-82317237D01*
X135195200Y-82522646D01*
X135149491Y-82538580D01*
X135117027Y-82549420D01*
X135099215Y-82554468D01*
X135098691Y-82554514D01*
X135096937Y-82540828D01*
X135095444Y-82503076D01*
X135094326Y-82446224D01*
X135093697Y-82375234D01*
X135093600Y-82332073D01*
X135093398Y-82246973D01*
X135092358Y-82185981D01*
X135089831Y-82144177D01*
X135085164Y-82116642D01*
X135077707Y-82098456D01*
X135066811Y-82084698D01*
X135060007Y-82078073D01*
X135013272Y-82051375D01*
X134962272Y-82049375D01*
X134916001Y-82071955D01*
X134907444Y-82080107D01*
X134894893Y-82095436D01*
X134886188Y-82113618D01*
X134880631Y-82139909D01*
X134877526Y-82179562D01*
X134876176Y-82237832D01*
X134875886Y-82318173D01*
X134875886Y-82522646D01*
X134830177Y-82538580D01*
X134797713Y-82549420D01*
X134779901Y-82554468D01*
X134779377Y-82554514D01*
X134778037Y-82540623D01*
X134776828Y-82501439D01*
X134775801Y-82440700D01*
X134775002Y-82362141D01*
X134774481Y-82269498D01*
X134774286Y-82166509D01*
X134774286Y-81769342D01*
X134821457Y-81749444D01*
X134868629Y-81729547D01*
X134875886Y-81851289D01*
G36*
X134875886Y-81851289D02*
G01*
X134880139Y-81910613D01*
X134885025Y-81945572D01*
X134891795Y-81960820D01*
X134901702Y-81961015D01*
X134904914Y-81959195D01*
X134947644Y-81946015D01*
X135003227Y-81946785D01*
X135059737Y-81960333D01*
X135095082Y-81977861D01*
X135131321Y-82005861D01*
X135157813Y-82037549D01*
X135175999Y-82077813D01*
X135187322Y-82131543D01*
X135193222Y-82203626D01*
X135195143Y-82298951D01*
X135195177Y-82317237D01*
X135195200Y-82522646D01*
X135149491Y-82538580D01*
X135117027Y-82549420D01*
X135099215Y-82554468D01*
X135098691Y-82554514D01*
X135096937Y-82540828D01*
X135095444Y-82503076D01*
X135094326Y-82446224D01*
X135093697Y-82375234D01*
X135093600Y-82332073D01*
X135093398Y-82246973D01*
X135092358Y-82185981D01*
X135089831Y-82144177D01*
X135085164Y-82116642D01*
X135077707Y-82098456D01*
X135066811Y-82084698D01*
X135060007Y-82078073D01*
X135013272Y-82051375D01*
X134962272Y-82049375D01*
X134916001Y-82071955D01*
X134907444Y-82080107D01*
X134894893Y-82095436D01*
X134886188Y-82113618D01*
X134880631Y-82139909D01*
X134877526Y-82179562D01*
X134876176Y-82237832D01*
X134875886Y-82318173D01*
X134875886Y-82522646D01*
X134830177Y-82538580D01*
X134797713Y-82549420D01*
X134779901Y-82554468D01*
X134779377Y-82554514D01*
X134778037Y-82540623D01*
X134776828Y-82501439D01*
X134775801Y-82440700D01*
X134775002Y-82362141D01*
X134774481Y-82269498D01*
X134774286Y-82166509D01*
X134774286Y-81769342D01*
X134821457Y-81749444D01*
X134868629Y-81729547D01*
X134875886Y-81851289D01*
G37*
X137279833Y-81958663D02*
X137282048Y-81996850D01*
X137283784Y-82054886D01*
X137284899Y-82128180D01*
X137285257Y-82205055D01*
X137285257Y-82465196D01*
X137239326Y-82511127D01*
X137207675Y-82539429D01*
X137179890Y-82550893D01*
X137141915Y-82550168D01*
X137126840Y-82548321D01*
X137079726Y-82542948D01*
X137040756Y-82539869D01*
X137031257Y-82539585D01*
X136999233Y-82541445D01*
X136953432Y-82546114D01*
X136935674Y-82548321D01*
X136892057Y-82551735D01*
X136862745Y-82544320D01*
X136833680Y-82521427D01*
X136823188Y-82511127D01*
X136777257Y-82465196D01*
X136777257Y-81978602D01*
X136814226Y-81961758D01*
X136846059Y-81949282D01*
X136864683Y-81944914D01*
X136869458Y-81958718D01*
X136873921Y-81997286D01*
X136877775Y-82056356D01*
X136880722Y-82131663D01*
X136882143Y-82195286D01*
X136886114Y-82445657D01*
X136920759Y-82450556D01*
X136952268Y-82447131D01*
X136967708Y-82436041D01*
X136972023Y-82415308D01*
X136975708Y-82371145D01*
X136978469Y-82309146D01*
X136980012Y-82234909D01*
X136980235Y-82196706D01*
X136980457Y-81976783D01*
X137026166Y-81960849D01*
X137058518Y-81950015D01*
X137076115Y-81944962D01*
X137076623Y-81944914D01*
X137078388Y-81958648D01*
X137080329Y-81996730D01*
X137082282Y-82054482D01*
X137084084Y-82127227D01*
X137085343Y-82195286D01*
X137089314Y-82445657D01*
X137176400Y-82445657D01*
X137180396Y-82217240D01*
X137184392Y-81988822D01*
X137226847Y-81966868D01*
X137258192Y-81951793D01*
X137276744Y-81944951D01*
X137277279Y-81944914D01*
X137279833Y-81958663D01*
G36*
X137279833Y-81958663D02*
G01*
X137282048Y-81996850D01*
X137283784Y-82054886D01*
X137284899Y-82128180D01*
X137285257Y-82205055D01*
X137285257Y-82465196D01*
X137239326Y-82511127D01*
X137207675Y-82539429D01*
X137179890Y-82550893D01*
X137141915Y-82550168D01*
X137126840Y-82548321D01*
X137079726Y-82542948D01*
X137040756Y-82539869D01*
X137031257Y-82539585D01*
X136999233Y-82541445D01*
X136953432Y-82546114D01*
X136935674Y-82548321D01*
X136892057Y-82551735D01*
X136862745Y-82544320D01*
X136833680Y-82521427D01*
X136823188Y-82511127D01*
X136777257Y-82465196D01*
X136777257Y-81978602D01*
X136814226Y-81961758D01*
X136846059Y-81949282D01*
X136864683Y-81944914D01*
X136869458Y-81958718D01*
X136873921Y-81997286D01*
X136877775Y-82056356D01*
X136880722Y-82131663D01*
X136882143Y-82195286D01*
X136886114Y-82445657D01*
X136920759Y-82450556D01*
X136952268Y-82447131D01*
X136967708Y-82436041D01*
X136972023Y-82415308D01*
X136975708Y-82371145D01*
X136978469Y-82309146D01*
X136980012Y-82234909D01*
X136980235Y-82196706D01*
X136980457Y-81976783D01*
X137026166Y-81960849D01*
X137058518Y-81950015D01*
X137076115Y-81944962D01*
X137076623Y-81944914D01*
X137078388Y-81958648D01*
X137080329Y-81996730D01*
X137082282Y-82054482D01*
X137084084Y-82127227D01*
X137085343Y-82195286D01*
X137089314Y-82445657D01*
X137176400Y-82445657D01*
X137180396Y-82217240D01*
X137184392Y-81988822D01*
X137226847Y-81966868D01*
X137258192Y-81951793D01*
X137276744Y-81944951D01*
X137277279Y-81944914D01*
X137279833Y-81958663D01*
G37*
X132541115Y-81921962D02*
X132609145Y-81957733D01*
X132659351Y-82015301D01*
X132677185Y-82052312D01*
X132691063Y-82107882D01*
X132698167Y-82178096D01*
X132698840Y-82254727D01*
X132693427Y-82329552D01*
X132682270Y-82394342D01*
X132665714Y-82440873D01*
X132660626Y-82448887D01*
X132600355Y-82508707D01*
X132528769Y-82544535D01*
X132451092Y-82555020D01*
X132372548Y-82538810D01*
X132350689Y-82529092D01*
X132308122Y-82499143D01*
X132270763Y-82459433D01*
X132267232Y-82454397D01*
X132252881Y-82430124D01*
X132243394Y-82404178D01*
X132237790Y-82370022D01*
X132235086Y-82321119D01*
X132234299Y-82250935D01*
X132234286Y-82235200D01*
X132234322Y-82230192D01*
X132379429Y-82230192D01*
X132380273Y-82296430D01*
X132383596Y-82340386D01*
X132390583Y-82368779D01*
X132402416Y-82388325D01*
X132408457Y-82394857D01*
X132443186Y-82419680D01*
X132476903Y-82418548D01*
X132510995Y-82397016D01*
X132531329Y-82374029D01*
X132543371Y-82340478D01*
X132550134Y-82287569D01*
X132550598Y-82281399D01*
X132551752Y-82185513D01*
X132539688Y-82114299D01*
X132514570Y-82068194D01*
X132476560Y-82047635D01*
X132462992Y-82046514D01*
X132427364Y-82052152D01*
X132402994Y-82071686D01*
X132388093Y-82109042D01*
X132380875Y-82168150D01*
X132379429Y-82230192D01*
X132234322Y-82230192D01*
X132234826Y-82160413D01*
X132237096Y-82108159D01*
X132242068Y-82071949D01*
X132250713Y-82045299D01*
X132264005Y-82021722D01*
X132266943Y-82017338D01*
X132316313Y-81958249D01*
X132370109Y-81923947D01*
X132435602Y-81910331D01*
X132457842Y-81909665D01*
X132541115Y-81921962D01*
G36*
X132541115Y-81921962D02*
G01*
X132609145Y-81957733D01*
X132659351Y-82015301D01*
X132677185Y-82052312D01*
X132691063Y-82107882D01*
X132698167Y-82178096D01*
X132698840Y-82254727D01*
X132693427Y-82329552D01*
X132682270Y-82394342D01*
X132665714Y-82440873D01*
X132660626Y-82448887D01*
X132600355Y-82508707D01*
X132528769Y-82544535D01*
X132451092Y-82555020D01*
X132372548Y-82538810D01*
X132350689Y-82529092D01*
X132308122Y-82499143D01*
X132270763Y-82459433D01*
X132267232Y-82454397D01*
X132252881Y-82430124D01*
X132243394Y-82404178D01*
X132237790Y-82370022D01*
X132235086Y-82321119D01*
X132234299Y-82250935D01*
X132234286Y-82235200D01*
X132234322Y-82230192D01*
X132379429Y-82230192D01*
X132380273Y-82296430D01*
X132383596Y-82340386D01*
X132390583Y-82368779D01*
X132402416Y-82388325D01*
X132408457Y-82394857D01*
X132443186Y-82419680D01*
X132476903Y-82418548D01*
X132510995Y-82397016D01*
X132531329Y-82374029D01*
X132543371Y-82340478D01*
X132550134Y-82287569D01*
X132550598Y-82281399D01*
X132551752Y-82185513D01*
X132539688Y-82114299D01*
X132514570Y-82068194D01*
X132476560Y-82047635D01*
X132462992Y-82046514D01*
X132427364Y-82052152D01*
X132402994Y-82071686D01*
X132388093Y-82109042D01*
X132380875Y-82168150D01*
X132379429Y-82230192D01*
X132234322Y-82230192D01*
X132234826Y-82160413D01*
X132237096Y-82108159D01*
X132242068Y-82071949D01*
X132250713Y-82045299D01*
X132264005Y-82021722D01*
X132266943Y-82017338D01*
X132316313Y-81958249D01*
X132370109Y-81923947D01*
X132435602Y-81910331D01*
X132457842Y-81909665D01*
X132541115Y-81921962D01*
G37*
X138653595Y-81966966D02*
X138711021Y-82004497D01*
X138738719Y-82038096D01*
X138760662Y-82099064D01*
X138762405Y-82147308D01*
X138758457Y-82211816D01*
X138609686Y-82276934D01*
X138537349Y-82310202D01*
X138490084Y-82336964D01*
X138465507Y-82360144D01*
X138461237Y-82382667D01*
X138474889Y-82407455D01*
X138489943Y-82423886D01*
X138533746Y-82450235D01*
X138581389Y-82452081D01*
X138625145Y-82431546D01*
X138657289Y-82390752D01*
X138663038Y-82376347D01*
X138690576Y-82331356D01*
X138722258Y-82312182D01*
X138765714Y-82295779D01*
X138765714Y-82357966D01*
X138761872Y-82400283D01*
X138746823Y-82435969D01*
X138715280Y-82476943D01*
X138710592Y-82482267D01*
X138675506Y-82518720D01*
X138645347Y-82538283D01*
X138607615Y-82547283D01*
X138576335Y-82550230D01*
X138520385Y-82550965D01*
X138480555Y-82541660D01*
X138455708Y-82527846D01*
X138416656Y-82497467D01*
X138389625Y-82464613D01*
X138372517Y-82423294D01*
X138363238Y-82367521D01*
X138359693Y-82291305D01*
X138359410Y-82252622D01*
X138360372Y-82206247D01*
X138448007Y-82206247D01*
X138449023Y-82231126D01*
X138451556Y-82235200D01*
X138468274Y-82229665D01*
X138504249Y-82215017D01*
X138552331Y-82194190D01*
X138562386Y-82189714D01*
X138623152Y-82158814D01*
X138656632Y-82131657D01*
X138663990Y-82106220D01*
X138646391Y-82080481D01*
X138631856Y-82069109D01*
X138579410Y-82046364D01*
X138530322Y-82050122D01*
X138489227Y-82077884D01*
X138460758Y-82127152D01*
X138451631Y-82166257D01*
X138448007Y-82206247D01*
X138360372Y-82206247D01*
X138361285Y-82162249D01*
X138368196Y-82095384D01*
X138381884Y-82046695D01*
X138404096Y-82010849D01*
X138436574Y-81982513D01*
X138450733Y-81973355D01*
X138515053Y-81949507D01*
X138585473Y-81948006D01*
X138653595Y-81966966D01*
G36*
X138653595Y-81966966D02*
G01*
X138711021Y-82004497D01*
X138738719Y-82038096D01*
X138760662Y-82099064D01*
X138762405Y-82147308D01*
X138758457Y-82211816D01*
X138609686Y-82276934D01*
X138537349Y-82310202D01*
X138490084Y-82336964D01*
X138465507Y-82360144D01*
X138461237Y-82382667D01*
X138474889Y-82407455D01*
X138489943Y-82423886D01*
X138533746Y-82450235D01*
X138581389Y-82452081D01*
X138625145Y-82431546D01*
X138657289Y-82390752D01*
X138663038Y-82376347D01*
X138690576Y-82331356D01*
X138722258Y-82312182D01*
X138765714Y-82295779D01*
X138765714Y-82357966D01*
X138761872Y-82400283D01*
X138746823Y-82435969D01*
X138715280Y-82476943D01*
X138710592Y-82482267D01*
X138675506Y-82518720D01*
X138645347Y-82538283D01*
X138607615Y-82547283D01*
X138576335Y-82550230D01*
X138520385Y-82550965D01*
X138480555Y-82541660D01*
X138455708Y-82527846D01*
X138416656Y-82497467D01*
X138389625Y-82464613D01*
X138372517Y-82423294D01*
X138363238Y-82367521D01*
X138359693Y-82291305D01*
X138359410Y-82252622D01*
X138360372Y-82206247D01*
X138448007Y-82206247D01*
X138449023Y-82231126D01*
X138451556Y-82235200D01*
X138468274Y-82229665D01*
X138504249Y-82215017D01*
X138552331Y-82194190D01*
X138562386Y-82189714D01*
X138623152Y-82158814D01*
X138656632Y-82131657D01*
X138663990Y-82106220D01*
X138646391Y-82080481D01*
X138631856Y-82069109D01*
X138579410Y-82046364D01*
X138530322Y-82050122D01*
X138489227Y-82077884D01*
X138460758Y-82127152D01*
X138451631Y-82166257D01*
X138448007Y-82206247D01*
X138360372Y-82206247D01*
X138361285Y-82162249D01*
X138368196Y-82095384D01*
X138381884Y-82046695D01*
X138404096Y-82010849D01*
X138436574Y-81982513D01*
X138450733Y-81973355D01*
X138515053Y-81949507D01*
X138585473Y-81948006D01*
X138653595Y-81966966D01*
G37*
X136690117Y-82065358D02*
X136689933Y-82173837D01*
X136689219Y-82257287D01*
X136687675Y-82319704D01*
X136685001Y-82365085D01*
X136680894Y-82397429D01*
X136675055Y-82420733D01*
X136667182Y-82438995D01*
X136661221Y-82449418D01*
X136611855Y-82505945D01*
X136549264Y-82541377D01*
X136480013Y-82554090D01*
X136410668Y-82542463D01*
X136369375Y-82521568D01*
X136326025Y-82485422D01*
X136296481Y-82441276D01*
X136278655Y-82383462D01*
X136270463Y-82306313D01*
X136269302Y-82249714D01*
X136269458Y-82245647D01*
X136370857Y-82245647D01*
X136371476Y-82310550D01*
X136374314Y-82353514D01*
X136380840Y-82381622D01*
X136392523Y-82401953D01*
X136406483Y-82417288D01*
X136453365Y-82446890D01*
X136503701Y-82449419D01*
X136551276Y-82424705D01*
X136554979Y-82421356D01*
X136570783Y-82403935D01*
X136580693Y-82383209D01*
X136586058Y-82352362D01*
X136588228Y-82304577D01*
X136588571Y-82251748D01*
X136587827Y-82185381D01*
X136584748Y-82141106D01*
X136578061Y-82112009D01*
X136566496Y-82091173D01*
X136557013Y-82080107D01*
X136512960Y-82052198D01*
X136462224Y-82048843D01*
X136413796Y-82070159D01*
X136404450Y-82078073D01*
X136388540Y-82095647D01*
X136378610Y-82116587D01*
X136373278Y-82147782D01*
X136371163Y-82196122D01*
X136370857Y-82245647D01*
X136269458Y-82245647D01*
X136272810Y-82158568D01*
X136284726Y-82090086D01*
X136307135Y-82038600D01*
X136342124Y-81998443D01*
X136369375Y-81977861D01*
X136418907Y-81955625D01*
X136476316Y-81945304D01*
X136529682Y-81948067D01*
X136559543Y-81959212D01*
X136571261Y-81962383D01*
X136579037Y-81950557D01*
X136584465Y-81918866D01*
X136588571Y-81870593D01*
X136593067Y-81816829D01*
X136599313Y-81784482D01*
X136610676Y-81765985D01*
X136630528Y-81753770D01*
X136643000Y-81748362D01*
X136690171Y-81728601D01*
X136690117Y-82065358D01*
G36*
X136690117Y-82065358D02*
G01*
X136689933Y-82173837D01*
X136689219Y-82257287D01*
X136687675Y-82319704D01*
X136685001Y-82365085D01*
X136680894Y-82397429D01*
X136675055Y-82420733D01*
X136667182Y-82438995D01*
X136661221Y-82449418D01*
X136611855Y-82505945D01*
X136549264Y-82541377D01*
X136480013Y-82554090D01*
X136410668Y-82542463D01*
X136369375Y-82521568D01*
X136326025Y-82485422D01*
X136296481Y-82441276D01*
X136278655Y-82383462D01*
X136270463Y-82306313D01*
X136269302Y-82249714D01*
X136269458Y-82245647D01*
X136370857Y-82245647D01*
X136371476Y-82310550D01*
X136374314Y-82353514D01*
X136380840Y-82381622D01*
X136392523Y-82401953D01*
X136406483Y-82417288D01*
X136453365Y-82446890D01*
X136503701Y-82449419D01*
X136551276Y-82424705D01*
X136554979Y-82421356D01*
X136570783Y-82403935D01*
X136580693Y-82383209D01*
X136586058Y-82352362D01*
X136588228Y-82304577D01*
X136588571Y-82251748D01*
X136587827Y-82185381D01*
X136584748Y-82141106D01*
X136578061Y-82112009D01*
X136566496Y-82091173D01*
X136557013Y-82080107D01*
X136512960Y-82052198D01*
X136462224Y-82048843D01*
X136413796Y-82070159D01*
X136404450Y-82078073D01*
X136388540Y-82095647D01*
X136378610Y-82116587D01*
X136373278Y-82147782D01*
X136371163Y-82196122D01*
X136370857Y-82245647D01*
X136269458Y-82245647D01*
X136272810Y-82158568D01*
X136284726Y-82090086D01*
X136307135Y-82038600D01*
X136342124Y-81998443D01*
X136369375Y-81977861D01*
X136418907Y-81955625D01*
X136476316Y-81945304D01*
X136529682Y-81948067D01*
X136559543Y-81959212D01*
X136571261Y-81962383D01*
X136579037Y-81950557D01*
X136584465Y-81918866D01*
X136588571Y-81870593D01*
X136593067Y-81816829D01*
X136599313Y-81784482D01*
X136610676Y-81765985D01*
X136630528Y-81753770D01*
X136643000Y-81748362D01*
X136690171Y-81728601D01*
X136690117Y-82065358D01*
G37*
X133668303Y-81931239D02*
X133725527Y-81969735D01*
X133769749Y-82025335D01*
X133796167Y-82096086D01*
X133801510Y-82148162D01*
X133800903Y-82169893D01*
X133795822Y-82186531D01*
X133781855Y-82201437D01*
X133754589Y-82217973D01*
X133709612Y-82239498D01*
X133642511Y-82269374D01*
X133642171Y-82269524D01*
X133580407Y-82297813D01*
X133529759Y-82322933D01*
X133495404Y-82342179D01*
X133482518Y-82352848D01*
X133482514Y-82352934D01*
X133493872Y-82376166D01*
X133520431Y-82401774D01*
X133550923Y-82420221D01*
X133566370Y-82423886D01*
X133608515Y-82411212D01*
X133644808Y-82379471D01*
X133662517Y-82344572D01*
X133679552Y-82318845D01*
X133712922Y-82289546D01*
X133752149Y-82264235D01*
X133786756Y-82250471D01*
X133793993Y-82249714D01*
X133802139Y-82262160D01*
X133802630Y-82293972D01*
X133796643Y-82336866D01*
X133785357Y-82382558D01*
X133769950Y-82422761D01*
X133769171Y-82424322D01*
X133722804Y-82489062D01*
X133662711Y-82533097D01*
X133594465Y-82554711D01*
X133523638Y-82552185D01*
X133455804Y-82523804D01*
X133452788Y-82521808D01*
X133399427Y-82473448D01*
X133364340Y-82410352D01*
X133344922Y-82327387D01*
X133342316Y-82304078D01*
X133337701Y-82194055D01*
X133343233Y-82142748D01*
X133482514Y-82142748D01*
X133484324Y-82174753D01*
X133494222Y-82184093D01*
X133518898Y-82177105D01*
X133557795Y-82160587D01*
X133601275Y-82139881D01*
X133602356Y-82139333D01*
X133639209Y-82119949D01*
X133654000Y-82107013D01*
X133650353Y-82093451D01*
X133634995Y-82075632D01*
X133595923Y-82049845D01*
X133553846Y-82047950D01*
X133516103Y-82066717D01*
X133490034Y-82102915D01*
X133482514Y-82142748D01*
X133343233Y-82142748D01*
X133347194Y-82106027D01*
X133371550Y-82036212D01*
X133405456Y-81987302D01*
X133466653Y-81937878D01*
X133534063Y-81913359D01*
X133602880Y-81911797D01*
X133668303Y-81931239D01*
G36*
X133668303Y-81931239D02*
G01*
X133725527Y-81969735D01*
X133769749Y-82025335D01*
X133796167Y-82096086D01*
X133801510Y-82148162D01*
X133800903Y-82169893D01*
X133795822Y-82186531D01*
X133781855Y-82201437D01*
X133754589Y-82217973D01*
X133709612Y-82239498D01*
X133642511Y-82269374D01*
X133642171Y-82269524D01*
X133580407Y-82297813D01*
X133529759Y-82322933D01*
X133495404Y-82342179D01*
X133482518Y-82352848D01*
X133482514Y-82352934D01*
X133493872Y-82376166D01*
X133520431Y-82401774D01*
X133550923Y-82420221D01*
X133566370Y-82423886D01*
X133608515Y-82411212D01*
X133644808Y-82379471D01*
X133662517Y-82344572D01*
X133679552Y-82318845D01*
X133712922Y-82289546D01*
X133752149Y-82264235D01*
X133786756Y-82250471D01*
X133793993Y-82249714D01*
X133802139Y-82262160D01*
X133802630Y-82293972D01*
X133796643Y-82336866D01*
X133785357Y-82382558D01*
X133769950Y-82422761D01*
X133769171Y-82424322D01*
X133722804Y-82489062D01*
X133662711Y-82533097D01*
X133594465Y-82554711D01*
X133523638Y-82552185D01*
X133455804Y-82523804D01*
X133452788Y-82521808D01*
X133399427Y-82473448D01*
X133364340Y-82410352D01*
X133344922Y-82327387D01*
X133342316Y-82304078D01*
X133337701Y-82194055D01*
X133343233Y-82142748D01*
X133482514Y-82142748D01*
X133484324Y-82174753D01*
X133494222Y-82184093D01*
X133518898Y-82177105D01*
X133557795Y-82160587D01*
X133601275Y-82139881D01*
X133602356Y-82139333D01*
X133639209Y-82119949D01*
X133654000Y-82107013D01*
X133650353Y-82093451D01*
X133634995Y-82075632D01*
X133595923Y-82049845D01*
X133553846Y-82047950D01*
X133516103Y-82066717D01*
X133490034Y-82102915D01*
X133482514Y-82142748D01*
X133343233Y-82142748D01*
X133347194Y-82106027D01*
X133371550Y-82036212D01*
X133405456Y-81987302D01*
X133466653Y-81937878D01*
X133534063Y-81913359D01*
X133602880Y-81911797D01*
X133668303Y-81931239D01*
G37*
X135539744Y-81950968D02*
X135596616Y-81972087D01*
X135597267Y-81972493D01*
X135632440Y-81998380D01*
X135658407Y-82028633D01*
X135676670Y-82068058D01*
X135688732Y-82121462D01*
X135696096Y-82193651D01*
X135700264Y-82289432D01*
X135700629Y-82303078D01*
X135705876Y-82508842D01*
X135661716Y-82531678D01*
X135629763Y-82547110D01*
X135610470Y-82554423D01*
X135609578Y-82554514D01*
X135606239Y-82541022D01*
X135603587Y-82504626D01*
X135601956Y-82451452D01*
X135601600Y-82408393D01*
X135601592Y-82338641D01*
X135598403Y-82294837D01*
X135587288Y-82273944D01*
X135563501Y-82272925D01*
X135522296Y-82288741D01*
X135460086Y-82317815D01*
X135414341Y-82341963D01*
X135390813Y-82362913D01*
X135383896Y-82385747D01*
X135383886Y-82386877D01*
X135395299Y-82426212D01*
X135429092Y-82447462D01*
X135480809Y-82450539D01*
X135518061Y-82450006D01*
X135537703Y-82460735D01*
X135549952Y-82486505D01*
X135557002Y-82519337D01*
X135546842Y-82537966D01*
X135543017Y-82540632D01*
X135507001Y-82551340D01*
X135456566Y-82552856D01*
X135404626Y-82545759D01*
X135367822Y-82532788D01*
X135316938Y-82489585D01*
X135288014Y-82429446D01*
X135282286Y-82382462D01*
X135286657Y-82340082D01*
X135302475Y-82305488D01*
X135333797Y-82274763D01*
X135384678Y-82243990D01*
X135459176Y-82209252D01*
X135463714Y-82207288D01*
X135530821Y-82176287D01*
X135572232Y-82150862D01*
X135589981Y-82128014D01*
X135586107Y-82104745D01*
X135562643Y-82078056D01*
X135555627Y-82071914D01*
X135508630Y-82048100D01*
X135459933Y-82049103D01*
X135417522Y-82072451D01*
X135389384Y-82115675D01*
X135386769Y-82124160D01*
X135361308Y-82165308D01*
X135329001Y-82185128D01*
X135282286Y-82204770D01*
X135282286Y-82153950D01*
X135296496Y-82080082D01*
X135338675Y-82012327D01*
X135360624Y-81989661D01*
X135410517Y-81960569D01*
X135473967Y-81947400D01*
X135539744Y-81950968D01*
G36*
X135539744Y-81950968D02*
G01*
X135596616Y-81972087D01*
X135597267Y-81972493D01*
X135632440Y-81998380D01*
X135658407Y-82028633D01*
X135676670Y-82068058D01*
X135688732Y-82121462D01*
X135696096Y-82193651D01*
X135700264Y-82289432D01*
X135700629Y-82303078D01*
X135705876Y-82508842D01*
X135661716Y-82531678D01*
X135629763Y-82547110D01*
X135610470Y-82554423D01*
X135609578Y-82554514D01*
X135606239Y-82541022D01*
X135603587Y-82504626D01*
X135601956Y-82451452D01*
X135601600Y-82408393D01*
X135601592Y-82338641D01*
X135598403Y-82294837D01*
X135587288Y-82273944D01*
X135563501Y-82272925D01*
X135522296Y-82288741D01*
X135460086Y-82317815D01*
X135414341Y-82341963D01*
X135390813Y-82362913D01*
X135383896Y-82385747D01*
X135383886Y-82386877D01*
X135395299Y-82426212D01*
X135429092Y-82447462D01*
X135480809Y-82450539D01*
X135518061Y-82450006D01*
X135537703Y-82460735D01*
X135549952Y-82486505D01*
X135557002Y-82519337D01*
X135546842Y-82537966D01*
X135543017Y-82540632D01*
X135507001Y-82551340D01*
X135456566Y-82552856D01*
X135404626Y-82545759D01*
X135367822Y-82532788D01*
X135316938Y-82489585D01*
X135288014Y-82429446D01*
X135282286Y-82382462D01*
X135286657Y-82340082D01*
X135302475Y-82305488D01*
X135333797Y-82274763D01*
X135384678Y-82243990D01*
X135459176Y-82209252D01*
X135463714Y-82207288D01*
X135530821Y-82176287D01*
X135572232Y-82150862D01*
X135589981Y-82128014D01*
X135586107Y-82104745D01*
X135562643Y-82078056D01*
X135555627Y-82071914D01*
X135508630Y-82048100D01*
X135459933Y-82049103D01*
X135417522Y-82072451D01*
X135389384Y-82115675D01*
X135386769Y-82124160D01*
X135361308Y-82165308D01*
X135329001Y-82185128D01*
X135282286Y-82204770D01*
X135282286Y-82153950D01*
X135296496Y-82080082D01*
X135338675Y-82012327D01*
X135360624Y-81989661D01*
X135410517Y-81960569D01*
X135473967Y-81947400D01*
X135539744Y-81950968D01*
G37*
X133099744Y-81919918D02*
X133155201Y-81947568D01*
X133204148Y-81998480D01*
X133217629Y-82017338D01*
X133232314Y-82042015D01*
X133241842Y-82068816D01*
X133247293Y-82104587D01*
X133249747Y-82156169D01*
X133250286Y-82224267D01*
X133247852Y-82317588D01*
X133239394Y-82387657D01*
X133223174Y-82439931D01*
X133197454Y-82479869D01*
X133160497Y-82512929D01*
X133157782Y-82514886D01*
X133121360Y-82534908D01*
X133077502Y-82544815D01*
X133021724Y-82547257D01*
X132931048Y-82547257D01*
X132931010Y-82635283D01*
X132930166Y-82684308D01*
X132925024Y-82713065D01*
X132911587Y-82730311D01*
X132885858Y-82744808D01*
X132879679Y-82747769D01*
X132850764Y-82761648D01*
X132828376Y-82770414D01*
X132811729Y-82771171D01*
X132800036Y-82761023D01*
X132792510Y-82737073D01*
X132788366Y-82696426D01*
X132786815Y-82636186D01*
X132787071Y-82553455D01*
X132788349Y-82445339D01*
X132788748Y-82413000D01*
X132790185Y-82301524D01*
X132791472Y-82228603D01*
X132930971Y-82228603D01*
X132931755Y-82290499D01*
X132935240Y-82330997D01*
X132943124Y-82357708D01*
X132957105Y-82378244D01*
X132966597Y-82388260D01*
X133005404Y-82417567D01*
X133039763Y-82419952D01*
X133075216Y-82395750D01*
X133076114Y-82394857D01*
X133090539Y-82376153D01*
X133099313Y-82350732D01*
X133103739Y-82311584D01*
X133105118Y-82251697D01*
X133105143Y-82238430D01*
X133101812Y-82155901D01*
X133090969Y-82098691D01*
X133071340Y-82063766D01*
X133041650Y-82048094D01*
X133024491Y-82046514D01*
X132983766Y-82053926D01*
X132955832Y-82078330D01*
X132939017Y-82122980D01*
X132931650Y-82191130D01*
X132930971Y-82228603D01*
X132791472Y-82228603D01*
X132791708Y-82215245D01*
X132793677Y-82150333D01*
X132796450Y-82102958D01*
X132800388Y-82069290D01*
X132805849Y-82045498D01*
X132813192Y-82027753D01*
X132822777Y-82012224D01*
X132826887Y-82006381D01*
X132881405Y-81951185D01*
X132950336Y-81919890D01*
X133030072Y-81911165D01*
X133099744Y-81919918D01*
G36*
X133099744Y-81919918D02*
G01*
X133155201Y-81947568D01*
X133204148Y-81998480D01*
X133217629Y-82017338D01*
X133232314Y-82042015D01*
X133241842Y-82068816D01*
X133247293Y-82104587D01*
X133249747Y-82156169D01*
X133250286Y-82224267D01*
X133247852Y-82317588D01*
X133239394Y-82387657D01*
X133223174Y-82439931D01*
X133197454Y-82479869D01*
X133160497Y-82512929D01*
X133157782Y-82514886D01*
X133121360Y-82534908D01*
X133077502Y-82544815D01*
X133021724Y-82547257D01*
X132931048Y-82547257D01*
X132931010Y-82635283D01*
X132930166Y-82684308D01*
X132925024Y-82713065D01*
X132911587Y-82730311D01*
X132885858Y-82744808D01*
X132879679Y-82747769D01*
X132850764Y-82761648D01*
X132828376Y-82770414D01*
X132811729Y-82771171D01*
X132800036Y-82761023D01*
X132792510Y-82737073D01*
X132788366Y-82696426D01*
X132786815Y-82636186D01*
X132787071Y-82553455D01*
X132788349Y-82445339D01*
X132788748Y-82413000D01*
X132790185Y-82301524D01*
X132791472Y-82228603D01*
X132930971Y-82228603D01*
X132931755Y-82290499D01*
X132935240Y-82330997D01*
X132943124Y-82357708D01*
X132957105Y-82378244D01*
X132966597Y-82388260D01*
X133005404Y-82417567D01*
X133039763Y-82419952D01*
X133075216Y-82395750D01*
X133076114Y-82394857D01*
X133090539Y-82376153D01*
X133099313Y-82350732D01*
X133103739Y-82311584D01*
X133105118Y-82251697D01*
X133105143Y-82238430D01*
X133101812Y-82155901D01*
X133090969Y-82098691D01*
X133071340Y-82063766D01*
X133041650Y-82048094D01*
X133024491Y-82046514D01*
X132983766Y-82053926D01*
X132955832Y-82078330D01*
X132939017Y-82122980D01*
X132931650Y-82191130D01*
X132930971Y-82228603D01*
X132791472Y-82228603D01*
X132791708Y-82215245D01*
X132793677Y-82150333D01*
X132796450Y-82102958D01*
X132800388Y-82069290D01*
X132805849Y-82045498D01*
X132813192Y-82027753D01*
X132822777Y-82012224D01*
X132826887Y-82006381D01*
X132881405Y-81951185D01*
X132950336Y-81919890D01*
X133030072Y-81911165D01*
X133099744Y-81919918D01*
G37*
X137644876Y-81956335D02*
X137686667Y-81975344D01*
X137719469Y-81998378D01*
X137743503Y-82024133D01*
X137760097Y-82057358D01*
X137770577Y-82102800D01*
X137776271Y-82165207D01*
X137778507Y-82249327D01*
X137778743Y-82304721D01*
X137778743Y-82520826D01*
X137741774Y-82537670D01*
X137712656Y-82549981D01*
X137698231Y-82554514D01*
X137695472Y-82541025D01*
X137693282Y-82504653D01*
X137691942Y-82451542D01*
X137691657Y-82409372D01*
X137690434Y-82348447D01*
X137687136Y-82300115D01*
X137682321Y-82270518D01*
X137678496Y-82264229D01*
X137652783Y-82270652D01*
X137612418Y-82287125D01*
X137565679Y-82309458D01*
X137520845Y-82333457D01*
X137486193Y-82354930D01*
X137470002Y-82369685D01*
X137469938Y-82369845D01*
X137471330Y-82397152D01*
X137483818Y-82423219D01*
X137505743Y-82444392D01*
X137537743Y-82451474D01*
X137565092Y-82450649D01*
X137603826Y-82450042D01*
X137624158Y-82459116D01*
X137636369Y-82483092D01*
X137637909Y-82487613D01*
X137643203Y-82521806D01*
X137629047Y-82542568D01*
X137592148Y-82552462D01*
X137552289Y-82554292D01*
X137480562Y-82540727D01*
X137443432Y-82521355D01*
X137397576Y-82475845D01*
X137373256Y-82419983D01*
X137371073Y-82360957D01*
X137391629Y-82305953D01*
X137422549Y-82271486D01*
X137453420Y-82252189D01*
X137501942Y-82227759D01*
X137558485Y-82202985D01*
X137567910Y-82199199D01*
X137630019Y-82171791D01*
X137665822Y-82147634D01*
X137677337Y-82123619D01*
X137666580Y-82096635D01*
X137648114Y-82075543D01*
X137604469Y-82049572D01*
X137556446Y-82047624D01*
X137512406Y-82067637D01*
X137480709Y-82107551D01*
X137476549Y-82117848D01*
X137452327Y-82155724D01*
X137416965Y-82183842D01*
X137372343Y-82206917D01*
X137372343Y-82141485D01*
X137374969Y-82101506D01*
X137386230Y-82069997D01*
X137411199Y-82036378D01*
X137435169Y-82010484D01*
X137472441Y-81973817D01*
X137501401Y-81954121D01*
X137532505Y-81946220D01*
X137567713Y-81944914D01*
X137644876Y-81956335D01*
G36*
X137644876Y-81956335D02*
G01*
X137686667Y-81975344D01*
X137719469Y-81998378D01*
X137743503Y-82024133D01*
X137760097Y-82057358D01*
X137770577Y-82102800D01*
X137776271Y-82165207D01*
X137778507Y-82249327D01*
X137778743Y-82304721D01*
X137778743Y-82520826D01*
X137741774Y-82537670D01*
X137712656Y-82549981D01*
X137698231Y-82554514D01*
X137695472Y-82541025D01*
X137693282Y-82504653D01*
X137691942Y-82451542D01*
X137691657Y-82409372D01*
X137690434Y-82348447D01*
X137687136Y-82300115D01*
X137682321Y-82270518D01*
X137678496Y-82264229D01*
X137652783Y-82270652D01*
X137612418Y-82287125D01*
X137565679Y-82309458D01*
X137520845Y-82333457D01*
X137486193Y-82354930D01*
X137470002Y-82369685D01*
X137469938Y-82369845D01*
X137471330Y-82397152D01*
X137483818Y-82423219D01*
X137505743Y-82444392D01*
X137537743Y-82451474D01*
X137565092Y-82450649D01*
X137603826Y-82450042D01*
X137624158Y-82459116D01*
X137636369Y-82483092D01*
X137637909Y-82487613D01*
X137643203Y-82521806D01*
X137629047Y-82542568D01*
X137592148Y-82552462D01*
X137552289Y-82554292D01*
X137480562Y-82540727D01*
X137443432Y-82521355D01*
X137397576Y-82475845D01*
X137373256Y-82419983D01*
X137371073Y-82360957D01*
X137391629Y-82305953D01*
X137422549Y-82271486D01*
X137453420Y-82252189D01*
X137501942Y-82227759D01*
X137558485Y-82202985D01*
X137567910Y-82199199D01*
X137630019Y-82171791D01*
X137665822Y-82147634D01*
X137677337Y-82123619D01*
X137666580Y-82096635D01*
X137648114Y-82075543D01*
X137604469Y-82049572D01*
X137556446Y-82047624D01*
X137512406Y-82067637D01*
X137480709Y-82107551D01*
X137476549Y-82117848D01*
X137452327Y-82155724D01*
X137416965Y-82183842D01*
X137372343Y-82206917D01*
X137372343Y-82141485D01*
X137374969Y-82101506D01*
X137386230Y-82069997D01*
X137411199Y-82036378D01*
X137435169Y-82010484D01*
X137472441Y-81973817D01*
X137501401Y-81954121D01*
X137532505Y-81946220D01*
X137567713Y-81944914D01*
X137644876Y-81956335D01*
G37*
X135603910Y-77242348D02*
X135682454Y-77242778D01*
X135739298Y-77243942D01*
X135778105Y-77246207D01*
X135802538Y-77249940D01*
X135816262Y-77255506D01*
X135822940Y-77263273D01*
X135826236Y-77273605D01*
X135826556Y-77274943D01*
X135831562Y-77299079D01*
X135840829Y-77346701D01*
X135853392Y-77412741D01*
X135868287Y-77492128D01*
X135884551Y-77579796D01*
X135885119Y-77582875D01*
X135901410Y-77668789D01*
X135916652Y-77744696D01*
X135929861Y-77806045D01*
X135940054Y-77848282D01*
X135946248Y-77866855D01*
X135946543Y-77867184D01*
X135964788Y-77876253D01*
X136002405Y-77891367D01*
X136051271Y-77909262D01*
X136051543Y-77909358D01*
X136113093Y-77932493D01*
X136185657Y-77961965D01*
X136254057Y-77991597D01*
X136257294Y-77993062D01*
X136368702Y-78043626D01*
X136615399Y-77875160D01*
X136691077Y-77823803D01*
X136759631Y-77777889D01*
X136817088Y-77740030D01*
X136859476Y-77712837D01*
X136882825Y-77698921D01*
X136885042Y-77697889D01*
X136902010Y-77702484D01*
X136933701Y-77724655D01*
X136981352Y-77765447D01*
X137046198Y-77825905D01*
X137112397Y-77890227D01*
X137176214Y-77953612D01*
X137233329Y-78011451D01*
X137280305Y-78060175D01*
X137313703Y-78096210D01*
X137330085Y-78115984D01*
X137330694Y-78117002D01*
X137332505Y-78130572D01*
X137325683Y-78152733D01*
X137308540Y-78186478D01*
X137279393Y-78234800D01*
X137236555Y-78300692D01*
X137179448Y-78385517D01*
X137128766Y-78460177D01*
X137083461Y-78527140D01*
X137046150Y-78582516D01*
X137019452Y-78622420D01*
X137005985Y-78642962D01*
X137005137Y-78644356D01*
X137006781Y-78664038D01*
X137019245Y-78702293D01*
X137040048Y-78751889D01*
X137047462Y-78767728D01*
X137079814Y-78838290D01*
X137114328Y-78918353D01*
X137142365Y-78987629D01*
X137162568Y-79039045D01*
X137178615Y-79078119D01*
X137187888Y-79098541D01*
X137189041Y-79100114D01*
X137206096Y-79102721D01*
X137246298Y-79109863D01*
X137304302Y-79120523D01*
X137374763Y-79133685D01*
X137452335Y-79148333D01*
X137531672Y-79163449D01*
X137607431Y-79178018D01*
X137674264Y-79191022D01*
X137726828Y-79201445D01*
X137759776Y-79208270D01*
X137767857Y-79210199D01*
X137776205Y-79214962D01*
X137782506Y-79225718D01*
X137787045Y-79246098D01*
X137790104Y-79279734D01*
X137791967Y-79330255D01*
X137792918Y-79401292D01*
X137793240Y-79496476D01*
X137793257Y-79535492D01*
X137793257Y-79852799D01*
X137717057Y-79867839D01*
X137674663Y-79875995D01*
X137611400Y-79887899D01*
X137534962Y-79902116D01*
X137453043Y-79917210D01*
X137430400Y-79921355D01*
X137354806Y-79936053D01*
X137288953Y-79950505D01*
X137238366Y-79963375D01*
X137208574Y-79973322D01*
X137203612Y-79976287D01*
X137191426Y-79997283D01*
X137173953Y-80037967D01*
X137154577Y-80090322D01*
X137150734Y-80101600D01*
X137125339Y-80171523D01*
X137093817Y-80250418D01*
X137062969Y-80321266D01*
X137062817Y-80321595D01*
X137011447Y-80432733D01*
X137180399Y-80681253D01*
X137349352Y-80929772D01*
X137132429Y-81147058D01*
X137066819Y-81211726D01*
X137006979Y-81268733D01*
X136956267Y-81315033D01*
X136918046Y-81347584D01*
X136895675Y-81363343D01*
X136892466Y-81364343D01*
X136873626Y-81356469D01*
X136835180Y-81334578D01*
X136781330Y-81301267D01*
X136716276Y-81259131D01*
X136645940Y-81211943D01*
X136574555Y-81163810D01*
X136510908Y-81121928D01*
X136459041Y-81088871D01*
X136422995Y-81067218D01*
X136406867Y-81059543D01*
X136387189Y-81066037D01*
X136349875Y-81083150D01*
X136302621Y-81107326D01*
X136297612Y-81110013D01*
X136233977Y-81141927D01*
X136190341Y-81157579D01*
X136163202Y-81157745D01*
X136149057Y-81143204D01*
X136148975Y-81143000D01*
X136141905Y-81125779D01*
X136125042Y-81084899D01*
X136099695Y-81023525D01*
X136067171Y-80944819D01*
X136028778Y-80851947D01*
X135985822Y-80748072D01*
X135944222Y-80647502D01*
X135898504Y-80536516D01*
X135856526Y-80433703D01*
X135819548Y-80342215D01*
X135788827Y-80265201D01*
X135765622Y-80205815D01*
X135751190Y-80167209D01*
X135746743Y-80152800D01*
X135757896Y-80136272D01*
X135787069Y-80109930D01*
X135825971Y-80080887D01*
X135936757Y-79989039D01*
X136023351Y-79883759D01*
X136084716Y-79767266D01*
X136119815Y-79641776D01*
X136127608Y-79509507D01*
X136121943Y-79448457D01*
X136091078Y-79321795D01*
X136037920Y-79209941D01*
X135965767Y-79114001D01*
X135877917Y-79035076D01*
X135777665Y-78974270D01*
X135668310Y-78932687D01*
X135553147Y-78911428D01*
X135435475Y-78911599D01*
X135318590Y-78934301D01*
X135205789Y-78980638D01*
X135100369Y-79051713D01*
X135056368Y-79091911D01*
X134971979Y-79195129D01*
X134913222Y-79307925D01*
X134879704Y-79427010D01*
X134871035Y-79549095D01*
X134886823Y-79670893D01*
X134926678Y-79789116D01*
X134990207Y-79900475D01*
X135077021Y-80001684D01*
X135174029Y-80080887D01*
X135214437Y-80111162D01*
X135242982Y-80137219D01*
X135253257Y-80152825D01*
X135247877Y-80169843D01*
X135232575Y-80210500D01*
X135208612Y-80271642D01*
X135177244Y-80350119D01*
X135139732Y-80442780D01*
X135097333Y-80546472D01*
X135055663Y-80647526D01*
X135009690Y-80758607D01*
X134967107Y-80861541D01*
X134929221Y-80953165D01*
X134897340Y-81030316D01*
X134872771Y-81089831D01*
X134856820Y-81128544D01*
X134850910Y-81143000D01*
X134836948Y-81157685D01*
X134809940Y-81157642D01*
X134766413Y-81142099D01*
X134702890Y-81110284D01*
X134702388Y-81110013D01*
X134654560Y-81085323D01*
X134615897Y-81067338D01*
X134594095Y-81059614D01*
X134593133Y-81059543D01*
X134576721Y-81067378D01*
X134540487Y-81089165D01*
X134488474Y-81122328D01*
X134424725Y-81164291D01*
X134354060Y-81211943D01*
X134282116Y-81260191D01*
X134217274Y-81302151D01*
X134163735Y-81335227D01*
X134125697Y-81356821D01*
X134107533Y-81364343D01*
X134090808Y-81354457D01*
X134057180Y-81326826D01*
X134010010Y-81284495D01*
X133952658Y-81230505D01*
X133888484Y-81167899D01*
X133867497Y-81146983D01*
X133650499Y-80929623D01*
X133815668Y-80687220D01*
X133865864Y-80612781D01*
X133909919Y-80545972D01*
X133945362Y-80490665D01*
X133969719Y-80450729D01*
X133980522Y-80430036D01*
X133980838Y-80428563D01*
X133975143Y-80409058D01*
X133959826Y-80369822D01*
X133937537Y-80317430D01*
X133921893Y-80282355D01*
X133892641Y-80215201D01*
X133865094Y-80147358D01*
X133843737Y-80090034D01*
X133837935Y-80072572D01*
X133821452Y-80025938D01*
X133805340Y-79989905D01*
X133796490Y-79976287D01*
X133776960Y-79967952D01*
X133734334Y-79956137D01*
X133674145Y-79942181D01*
X133601922Y-79927422D01*
X133569600Y-79921355D01*
X133487522Y-79906273D01*
X133408795Y-79891669D01*
X133341109Y-79878980D01*
X133292160Y-79869642D01*
X133282943Y-79867839D01*
X133206743Y-79852799D01*
X133206743Y-79535492D01*
X133206914Y-79431154D01*
X133207616Y-79352213D01*
X133209134Y-79295038D01*
X133211749Y-79255999D01*
X133215746Y-79231465D01*
X133221409Y-79217805D01*
X133229020Y-79211389D01*
X133232143Y-79210199D01*
X133250978Y-79205980D01*
X133292588Y-79197562D01*
X133351630Y-79185961D01*
X133422757Y-79172195D01*
X133500625Y-79157280D01*
X133579887Y-79142232D01*
X133655198Y-79128069D01*
X133721213Y-79115806D01*
X133772587Y-79106461D01*
X133803975Y-79101050D01*
X133810959Y-79100114D01*
X133817285Y-79087596D01*
X133831290Y-79054246D01*
X133850355Y-79006377D01*
X133857634Y-78987629D01*
X133886996Y-78915195D01*
X133921571Y-78835170D01*
X133952537Y-78767728D01*
X133975323Y-78716159D01*
X133990482Y-78673785D01*
X133995542Y-78647834D01*
X133994736Y-78644356D01*
X133984041Y-78627936D01*
X133959620Y-78591417D01*
X133924095Y-78538687D01*
X133880087Y-78473635D01*
X133830217Y-78400151D01*
X133820356Y-78385645D01*
X133762492Y-78299704D01*
X133719956Y-78234261D01*
X133691054Y-78186304D01*
X133674090Y-78152820D01*
X133667367Y-78130795D01*
X133669190Y-78117217D01*
X133669236Y-78117131D01*
X133683586Y-78099297D01*
X133715323Y-78064817D01*
X133761010Y-78017268D01*
X133817204Y-77960222D01*
X133880468Y-77897255D01*
X133887602Y-77890227D01*
X133967330Y-77813020D01*
X134028857Y-77756330D01*
X134073421Y-77719110D01*
X134102257Y-77700315D01*
X134114958Y-77697889D01*
X134133494Y-77708471D01*
X134171961Y-77732916D01*
X134226386Y-77768612D01*
X134292798Y-77812947D01*
X134367225Y-77863311D01*
X134384601Y-77875160D01*
X134631297Y-78043626D01*
X134742706Y-77993062D01*
X134810457Y-77963595D01*
X134883183Y-77933959D01*
X134945703Y-77910330D01*
X134948457Y-77909358D01*
X134997360Y-77891457D01*
X135035057Y-77876320D01*
X135053425Y-77867210D01*
X135053456Y-77867184D01*
X135059285Y-77850717D01*
X135069192Y-77810219D01*
X135082195Y-77750242D01*
X135097309Y-77675340D01*
X135113552Y-77590064D01*
X135114881Y-77582875D01*
X135131175Y-77495014D01*
X135146133Y-77415260D01*
X135158791Y-77348681D01*
X135168186Y-77300347D01*
X135173354Y-77275325D01*
X135173444Y-77274943D01*
X135176589Y-77264299D01*
X135182704Y-77256262D01*
X135195453Y-77250467D01*
X135218500Y-77246547D01*
X135255509Y-77244135D01*
X135310144Y-77242865D01*
X135386067Y-77242371D01*
X135486944Y-77242286D01*
X135500000Y-77242286D01*
X135603910Y-77242348D01*
G36*
X135603910Y-77242348D02*
G01*
X135682454Y-77242778D01*
X135739298Y-77243942D01*
X135778105Y-77246207D01*
X135802538Y-77249940D01*
X135816262Y-77255506D01*
X135822940Y-77263273D01*
X135826236Y-77273605D01*
X135826556Y-77274943D01*
X135831562Y-77299079D01*
X135840829Y-77346701D01*
X135853392Y-77412741D01*
X135868287Y-77492128D01*
X135884551Y-77579796D01*
X135885119Y-77582875D01*
X135901410Y-77668789D01*
X135916652Y-77744696D01*
X135929861Y-77806045D01*
X135940054Y-77848282D01*
X135946248Y-77866855D01*
X135946543Y-77867184D01*
X135964788Y-77876253D01*
X136002405Y-77891367D01*
X136051271Y-77909262D01*
X136051543Y-77909358D01*
X136113093Y-77932493D01*
X136185657Y-77961965D01*
X136254057Y-77991597D01*
X136257294Y-77993062D01*
X136368702Y-78043626D01*
X136615399Y-77875160D01*
X136691077Y-77823803D01*
X136759631Y-77777889D01*
X136817088Y-77740030D01*
X136859476Y-77712837D01*
X136882825Y-77698921D01*
X136885042Y-77697889D01*
X136902010Y-77702484D01*
X136933701Y-77724655D01*
X136981352Y-77765447D01*
X137046198Y-77825905D01*
X137112397Y-77890227D01*
X137176214Y-77953612D01*
X137233329Y-78011451D01*
X137280305Y-78060175D01*
X137313703Y-78096210D01*
X137330085Y-78115984D01*
X137330694Y-78117002D01*
X137332505Y-78130572D01*
X137325683Y-78152733D01*
X137308540Y-78186478D01*
X137279393Y-78234800D01*
X137236555Y-78300692D01*
X137179448Y-78385517D01*
X137128766Y-78460177D01*
X137083461Y-78527140D01*
X137046150Y-78582516D01*
X137019452Y-78622420D01*
X137005985Y-78642962D01*
X137005137Y-78644356D01*
X137006781Y-78664038D01*
X137019245Y-78702293D01*
X137040048Y-78751889D01*
X137047462Y-78767728D01*
X137079814Y-78838290D01*
X137114328Y-78918353D01*
X137142365Y-78987629D01*
X137162568Y-79039045D01*
X137178615Y-79078119D01*
X137187888Y-79098541D01*
X137189041Y-79100114D01*
X137206096Y-79102721D01*
X137246298Y-79109863D01*
X137304302Y-79120523D01*
X137374763Y-79133685D01*
X137452335Y-79148333D01*
X137531672Y-79163449D01*
X137607431Y-79178018D01*
X137674264Y-79191022D01*
X137726828Y-79201445D01*
X137759776Y-79208270D01*
X137767857Y-79210199D01*
X137776205Y-79214962D01*
X137782506Y-79225718D01*
X137787045Y-79246098D01*
X137790104Y-79279734D01*
X137791967Y-79330255D01*
X137792918Y-79401292D01*
X137793240Y-79496476D01*
X137793257Y-79535492D01*
X137793257Y-79852799D01*
X137717057Y-79867839D01*
X137674663Y-79875995D01*
X137611400Y-79887899D01*
X137534962Y-79902116D01*
X137453043Y-79917210D01*
X137430400Y-79921355D01*
X137354806Y-79936053D01*
X137288953Y-79950505D01*
X137238366Y-79963375D01*
X137208574Y-79973322D01*
X137203612Y-79976287D01*
X137191426Y-79997283D01*
X137173953Y-80037967D01*
X137154577Y-80090322D01*
X137150734Y-80101600D01*
X137125339Y-80171523D01*
X137093817Y-80250418D01*
X137062969Y-80321266D01*
X137062817Y-80321595D01*
X137011447Y-80432733D01*
X137180399Y-80681253D01*
X137349352Y-80929772D01*
X137132429Y-81147058D01*
X137066819Y-81211726D01*
X137006979Y-81268733D01*
X136956267Y-81315033D01*
X136918046Y-81347584D01*
X136895675Y-81363343D01*
X136892466Y-81364343D01*
X136873626Y-81356469D01*
X136835180Y-81334578D01*
X136781330Y-81301267D01*
X136716276Y-81259131D01*
X136645940Y-81211943D01*
X136574555Y-81163810D01*
X136510908Y-81121928D01*
X136459041Y-81088871D01*
X136422995Y-81067218D01*
X136406867Y-81059543D01*
X136387189Y-81066037D01*
X136349875Y-81083150D01*
X136302621Y-81107326D01*
X136297612Y-81110013D01*
X136233977Y-81141927D01*
X136190341Y-81157579D01*
X136163202Y-81157745D01*
X136149057Y-81143204D01*
X136148975Y-81143000D01*
X136141905Y-81125779D01*
X136125042Y-81084899D01*
X136099695Y-81023525D01*
X136067171Y-80944819D01*
X136028778Y-80851947D01*
X135985822Y-80748072D01*
X135944222Y-80647502D01*
X135898504Y-80536516D01*
X135856526Y-80433703D01*
X135819548Y-80342215D01*
X135788827Y-80265201D01*
X135765622Y-80205815D01*
X135751190Y-80167209D01*
X135746743Y-80152800D01*
X135757896Y-80136272D01*
X135787069Y-80109930D01*
X135825971Y-80080887D01*
X135936757Y-79989039D01*
X136023351Y-79883759D01*
X136084716Y-79767266D01*
X136119815Y-79641776D01*
X136127608Y-79509507D01*
X136121943Y-79448457D01*
X136091078Y-79321795D01*
X136037920Y-79209941D01*
X135965767Y-79114001D01*
X135877917Y-79035076D01*
X135777665Y-78974270D01*
X135668310Y-78932687D01*
X135553147Y-78911428D01*
X135435475Y-78911599D01*
X135318590Y-78934301D01*
X135205789Y-78980638D01*
X135100369Y-79051713D01*
X135056368Y-79091911D01*
X134971979Y-79195129D01*
X134913222Y-79307925D01*
X134879704Y-79427010D01*
X134871035Y-79549095D01*
X134886823Y-79670893D01*
X134926678Y-79789116D01*
X134990207Y-79900475D01*
X135077021Y-80001684D01*
X135174029Y-80080887D01*
X135214437Y-80111162D01*
X135242982Y-80137219D01*
X135253257Y-80152825D01*
X135247877Y-80169843D01*
X135232575Y-80210500D01*
X135208612Y-80271642D01*
X135177244Y-80350119D01*
X135139732Y-80442780D01*
X135097333Y-80546472D01*
X135055663Y-80647526D01*
X135009690Y-80758607D01*
X134967107Y-80861541D01*
X134929221Y-80953165D01*
X134897340Y-81030316D01*
X134872771Y-81089831D01*
X134856820Y-81128544D01*
X134850910Y-81143000D01*
X134836948Y-81157685D01*
X134809940Y-81157642D01*
X134766413Y-81142099D01*
X134702890Y-81110284D01*
X134702388Y-81110013D01*
X134654560Y-81085323D01*
X134615897Y-81067338D01*
X134594095Y-81059614D01*
X134593133Y-81059543D01*
X134576721Y-81067378D01*
X134540487Y-81089165D01*
X134488474Y-81122328D01*
X134424725Y-81164291D01*
X134354060Y-81211943D01*
X134282116Y-81260191D01*
X134217274Y-81302151D01*
X134163735Y-81335227D01*
X134125697Y-81356821D01*
X134107533Y-81364343D01*
X134090808Y-81354457D01*
X134057180Y-81326826D01*
X134010010Y-81284495D01*
X133952658Y-81230505D01*
X133888484Y-81167899D01*
X133867497Y-81146983D01*
X133650499Y-80929623D01*
X133815668Y-80687220D01*
X133865864Y-80612781D01*
X133909919Y-80545972D01*
X133945362Y-80490665D01*
X133969719Y-80450729D01*
X133980522Y-80430036D01*
X133980838Y-80428563D01*
X133975143Y-80409058D01*
X133959826Y-80369822D01*
X133937537Y-80317430D01*
X133921893Y-80282355D01*
X133892641Y-80215201D01*
X133865094Y-80147358D01*
X133843737Y-80090034D01*
X133837935Y-80072572D01*
X133821452Y-80025938D01*
X133805340Y-79989905D01*
X133796490Y-79976287D01*
X133776960Y-79967952D01*
X133734334Y-79956137D01*
X133674145Y-79942181D01*
X133601922Y-79927422D01*
X133569600Y-79921355D01*
X133487522Y-79906273D01*
X133408795Y-79891669D01*
X133341109Y-79878980D01*
X133292160Y-79869642D01*
X133282943Y-79867839D01*
X133206743Y-79852799D01*
X133206743Y-79535492D01*
X133206914Y-79431154D01*
X133207616Y-79352213D01*
X133209134Y-79295038D01*
X133211749Y-79255999D01*
X133215746Y-79231465D01*
X133221409Y-79217805D01*
X133229020Y-79211389D01*
X133232143Y-79210199D01*
X133250978Y-79205980D01*
X133292588Y-79197562D01*
X133351630Y-79185961D01*
X133422757Y-79172195D01*
X133500625Y-79157280D01*
X133579887Y-79142232D01*
X133655198Y-79128069D01*
X133721213Y-79115806D01*
X133772587Y-79106461D01*
X133803975Y-79101050D01*
X133810959Y-79100114D01*
X133817285Y-79087596D01*
X133831290Y-79054246D01*
X133850355Y-79006377D01*
X133857634Y-78987629D01*
X133886996Y-78915195D01*
X133921571Y-78835170D01*
X133952537Y-78767728D01*
X133975323Y-78716159D01*
X133990482Y-78673785D01*
X133995542Y-78647834D01*
X133994736Y-78644356D01*
X133984041Y-78627936D01*
X133959620Y-78591417D01*
X133924095Y-78538687D01*
X133880087Y-78473635D01*
X133830217Y-78400151D01*
X133820356Y-78385645D01*
X133762492Y-78299704D01*
X133719956Y-78234261D01*
X133691054Y-78186304D01*
X133674090Y-78152820D01*
X133667367Y-78130795D01*
X133669190Y-78117217D01*
X133669236Y-78117131D01*
X133683586Y-78099297D01*
X133715323Y-78064817D01*
X133761010Y-78017268D01*
X133817204Y-77960222D01*
X133880468Y-77897255D01*
X133887602Y-77890227D01*
X133967330Y-77813020D01*
X134028857Y-77756330D01*
X134073421Y-77719110D01*
X134102257Y-77700315D01*
X134114958Y-77697889D01*
X134133494Y-77708471D01*
X134171961Y-77732916D01*
X134226386Y-77768612D01*
X134292798Y-77812947D01*
X134367225Y-77863311D01*
X134384601Y-77875160D01*
X134631297Y-78043626D01*
X134742706Y-77993062D01*
X134810457Y-77963595D01*
X134883183Y-77933959D01*
X134945703Y-77910330D01*
X134948457Y-77909358D01*
X134997360Y-77891457D01*
X135035057Y-77876320D01*
X135053425Y-77867210D01*
X135053456Y-77867184D01*
X135059285Y-77850717D01*
X135069192Y-77810219D01*
X135082195Y-77750242D01*
X135097309Y-77675340D01*
X135113552Y-77590064D01*
X135114881Y-77582875D01*
X135131175Y-77495014D01*
X135146133Y-77415260D01*
X135158791Y-77348681D01*
X135168186Y-77300347D01*
X135173354Y-77275325D01*
X135173444Y-77274943D01*
X135176589Y-77264299D01*
X135182704Y-77256262D01*
X135195453Y-77250467D01*
X135218500Y-77246547D01*
X135255509Y-77244135D01*
X135310144Y-77242865D01*
X135386067Y-77242371D01*
X135486944Y-77242286D01*
X135500000Y-77242286D01*
X135603910Y-77242348D01*
G37*
D15*
X90460000Y-77578349D02*
X87695000Y-77578349D01*
X90460000Y-77618349D02*
X87710000Y-77618349D01*
X90460000Y-77658349D02*
X87726000Y-77658349D01*
X90460000Y-77698349D02*
X87743000Y-77698349D01*
X90460000Y-77738349D02*
X87760000Y-77738349D01*
X90460000Y-77778349D02*
X87778000Y-77778349D01*
X90460000Y-77818349D02*
X87796000Y-77818349D01*
X90460000Y-77858349D02*
X87814000Y-77858349D01*
X90460000Y-77898349D02*
X87834000Y-77898349D01*
X90460000Y-77938349D02*
X87853000Y-77938349D01*
X90460000Y-77978349D02*
X87873000Y-77978349D01*
X90460000Y-78018349D02*
X87894000Y-78018349D01*
X90460000Y-78058349D02*
X87916000Y-78058349D01*
X90460000Y-78098349D02*
X87938000Y-78098349D01*
X90460000Y-78138349D02*
X87960000Y-78138349D01*
X90460000Y-78178349D02*
X87983000Y-78178349D01*
X90460000Y-78218349D02*
X88007000Y-78218349D01*
X90460000Y-78258349D02*
X88031000Y-78258349D01*
X90460000Y-78298349D02*
X88056000Y-78298349D01*
X90460000Y-78338349D02*
X88082000Y-78338349D01*
X90460000Y-78378349D02*
X88108000Y-78378349D01*
X90460000Y-78418349D02*
X88135000Y-78418349D01*
X90460000Y-78458349D02*
X88162000Y-78458349D01*
X90460000Y-78498349D02*
X88191000Y-78498349D01*
X90460000Y-78538349D02*
X88220000Y-78538349D01*
X90460000Y-78578349D02*
X88250000Y-78578349D01*
X90460000Y-78618349D02*
X88280000Y-78618349D01*
X90460000Y-78658349D02*
X88311000Y-78658349D01*
X90460000Y-78698349D02*
X88344000Y-78698349D01*
X90460000Y-78738349D02*
X88376000Y-78738349D01*
X90460000Y-78778349D02*
X88410000Y-78778349D01*
X90460000Y-78818349D02*
X88445000Y-78818349D01*
X90460000Y-78858349D02*
X88481000Y-78858349D01*
X90460000Y-78898349D02*
X88517000Y-78898349D01*
X90460000Y-78938349D02*
X88555000Y-78938349D01*
X90460000Y-78978349D02*
X88593000Y-78978349D01*
X90460000Y-79018349D02*
X88633000Y-79018349D01*
X90460000Y-79058349D02*
X88674000Y-79058349D01*
X90460000Y-79098349D02*
X88716000Y-79098349D01*
X90460000Y-79138349D02*
X88759000Y-79138349D01*
X90460000Y-79178349D02*
X88803000Y-79178349D01*
X90460000Y-79218349D02*
X88849000Y-79218349D01*
X90460000Y-79258349D02*
X88896000Y-79258349D01*
X90460000Y-79298349D02*
X88944000Y-79298349D01*
X90460000Y-79338349D02*
X88995000Y-79338349D01*
X90460000Y-79378349D02*
X89046000Y-79378349D01*
X90460000Y-79418349D02*
X89100000Y-79418349D01*
X90460000Y-79458349D02*
X89155000Y-79458349D01*
X90460000Y-79498349D02*
X89213000Y-79498349D01*
X90460000Y-79538349D02*
X89272000Y-79538349D01*
X90460000Y-79578349D02*
X89334000Y-79578349D01*
X90460000Y-79618349D02*
X89398000Y-79618349D01*
X92033000Y-80178349D02*
X90967000Y-80178349D01*
X92268000Y-80138349D02*
X90732000Y-80138349D01*
X92448000Y-80098349D02*
X90552000Y-80098349D01*
X92598000Y-80058349D02*
X90402000Y-80058349D01*
X92729000Y-80018349D02*
X90271000Y-80018349D01*
X92846000Y-79978349D02*
X90154000Y-79978349D01*
X92953000Y-79938349D02*
X90047000Y-79938349D01*
X93052000Y-79898349D02*
X89948000Y-79898349D01*
X93145000Y-79858349D02*
X89855000Y-79858349D01*
X93231000Y-79818349D02*
X89769000Y-79818349D01*
X93313000Y-79778349D02*
X89687000Y-79778349D01*
X93390000Y-79738349D02*
X89610000Y-79738349D01*
X93464000Y-79698349D02*
X89536000Y-79698349D01*
X93534000Y-79658349D02*
X89466000Y-79658349D01*
X93602000Y-79618349D02*
X92540000Y-79618349D01*
X93666000Y-79578349D02*
X92540000Y-79578349D01*
X93728000Y-79538349D02*
X92540000Y-79538349D01*
X93787000Y-79498349D02*
X92540000Y-79498349D01*
X93815000Y-71687651D02*
X93815000Y-72487651D01*
X93845000Y-79458349D02*
X92540000Y-79458349D01*
X93900000Y-79418349D02*
X92540000Y-79418349D01*
X93954000Y-79378349D02*
X92540000Y-79378349D01*
X94005000Y-79338349D02*
X92540000Y-79338349D01*
X94056000Y-79298349D02*
X92540000Y-79298349D01*
X94104000Y-79258349D02*
X92540000Y-79258349D01*
X94151000Y-79218349D02*
X92540000Y-79218349D01*
X94197000Y-79178349D02*
X92540000Y-79178349D01*
X94215000Y-72087651D02*
X93415000Y-72087651D01*
X94241000Y-79138349D02*
X92540000Y-79138349D01*
X94284000Y-79098349D02*
X92540000Y-79098349D01*
X94326000Y-79058349D02*
X92540000Y-79058349D01*
X94367000Y-79018349D02*
X92540000Y-79018349D01*
X94407000Y-78978349D02*
X92540000Y-78978349D01*
X94445000Y-78938349D02*
X92540000Y-78938349D01*
X94483000Y-78898349D02*
X92540000Y-78898349D01*
X94519000Y-78858349D02*
X92540000Y-78858349D01*
X94555000Y-78818349D02*
X92540000Y-78818349D01*
X94590000Y-78778349D02*
X92540000Y-78778349D01*
X94624000Y-78738349D02*
X92540000Y-78738349D01*
X94656000Y-78698349D02*
X92540000Y-78698349D01*
X94689000Y-78658349D02*
X92540000Y-78658349D01*
X94720000Y-78618349D02*
X92540000Y-78618349D01*
X94750000Y-78578349D02*
X92540000Y-78578349D01*
X94780000Y-78538349D02*
X92540000Y-78538349D01*
X94809000Y-78498349D02*
X92540000Y-78498349D01*
X94838000Y-78458349D02*
X92540000Y-78458349D01*
X94865000Y-78418349D02*
X92540000Y-78418349D01*
X94892000Y-78378349D02*
X92540000Y-78378349D01*
X94918000Y-78338349D02*
X92540000Y-78338349D01*
X94944000Y-78298349D02*
X92540000Y-78298349D01*
X94969000Y-78258349D02*
X92540000Y-78258349D01*
X94993000Y-78218349D02*
X92540000Y-78218349D01*
X95017000Y-78178349D02*
X92540000Y-78178349D01*
X95040000Y-78138349D02*
X92540000Y-78138349D01*
X95062000Y-78098349D02*
X92540000Y-78098349D01*
X95084000Y-78058349D02*
X92540000Y-78058349D01*
X95106000Y-78018349D02*
X92540000Y-78018349D01*
X95127000Y-77978349D02*
X92540000Y-77978349D01*
X95147000Y-77938349D02*
X92540000Y-77938349D01*
X95166000Y-77898349D02*
X92540000Y-77898349D01*
X95186000Y-77858349D02*
X92540000Y-77858349D01*
X95204000Y-77818349D02*
X92540000Y-77818349D01*
X95222000Y-77778349D02*
X92540000Y-77778349D01*
X95240000Y-77738349D02*
X92540000Y-77738349D01*
X95257000Y-77698349D02*
X92540000Y-77698349D01*
X95274000Y-77658349D02*
X92540000Y-77658349D01*
X95290000Y-77618349D02*
X92540000Y-77618349D01*
X95305000Y-77578349D02*
X92540000Y-77578349D01*
X95321000Y-77538349D02*
X87679000Y-77538349D01*
X95335000Y-77498349D02*
X87665000Y-77498349D01*
X95350000Y-77458349D02*
X87650000Y-77458349D01*
X95363000Y-77418349D02*
X87637000Y-77418349D01*
X95377000Y-77378349D02*
X87623000Y-77378349D01*
X95389000Y-77338349D02*
X87611000Y-77338349D01*
X95402000Y-77298349D02*
X87598000Y-77298349D01*
X95414000Y-77258349D02*
X87586000Y-77258349D01*
X95425000Y-77218349D02*
X87575000Y-77218349D01*
X95436000Y-77178349D02*
X87564000Y-77178349D01*
X95447000Y-77138349D02*
X87553000Y-77138349D01*
X95457000Y-77098349D02*
X87543000Y-77098349D01*
X95467000Y-77058349D02*
X87533000Y-77058349D01*
X95476000Y-77018349D02*
X87524000Y-77018349D01*
X95485000Y-76978349D02*
X87515000Y-76978349D01*
X95494000Y-76938349D02*
X87506000Y-76938349D01*
X95502000Y-76898349D02*
X87498000Y-76898349D01*
X95510000Y-76858349D02*
X87490000Y-76858349D01*
X95517000Y-76818349D02*
X87483000Y-76818349D01*
X95524000Y-76777349D02*
X87476000Y-76777349D01*
X95530000Y-76737349D02*
X87470000Y-76737349D01*
X95537000Y-76697349D02*
X87463000Y-76697349D01*
X95542000Y-76657349D02*
X87458000Y-76657349D01*
X95548000Y-76617349D02*
X87452000Y-76617349D01*
X95552000Y-76577349D02*
X87448000Y-76577349D01*
X95557000Y-76537349D02*
X87443000Y-76537349D01*
X95561000Y-76497349D02*
X87439000Y-76497349D01*
X95565000Y-76457349D02*
X87435000Y-76457349D01*
X95568000Y-76417349D02*
X87432000Y-76417349D01*
X95571000Y-76377349D02*
X87429000Y-76377349D01*
X95574000Y-76337349D02*
X87426000Y-76337349D01*
X95576000Y-76297349D02*
X87424000Y-76297349D01*
X95577000Y-76257349D02*
X87423000Y-76257349D01*
X95579000Y-76217349D02*
X87421000Y-76217349D01*
X95580000Y-76097349D02*
X87420000Y-76097349D01*
X95580000Y-76137349D02*
X87420000Y-76137349D01*
X95580000Y-76177349D02*
X87420000Y-76177349D01*
X95620000Y-76097349D02*
G75*
G02*
X87380000Y-76097349I-4120000J0D01*
G01*
X87380000Y-76097349D02*
G75*
G02*
X95620000Y-76097349I4120000J0D01*
G01*
%LPC*%
D18*
X99500000Y-60080000D03*
D19*
X97480000Y-60080000D03*
D20*
X96250000Y-60080000D03*
D21*
X98500000Y-60080000D03*
D22*
X100520000Y-60080000D03*
D23*
X101750000Y-60080000D03*
D24*
X103320000Y-60000000D03*
X103320000Y-56200000D03*
X94680000Y-60000000D03*
X94680000Y-56200000D03*
D25*
X161400000Y-59850000D03*
D26*
X108500000Y-70000000D03*
D27*
X108500000Y-72540000D03*
X108500000Y-75080000D03*
D26*
X90500000Y-59500000D03*
D27*
X90500000Y-56960000D03*
D25*
X82450000Y-79200000D03*
D26*
X153540000Y-79500000D03*
D27*
X151000000Y-79500000D03*
X148460000Y-79500000D03*
D26*
X143775000Y-79500000D03*
D27*
X141235000Y-79500000D03*
D28*
X138500000Y-69500000D03*
D29*
X138500000Y-74500000D03*
D30*
X114300000Y-64500000D03*
X114300000Y-66500000D03*
X114300000Y-68500000D03*
X114300000Y-70500000D03*
X114300000Y-72500000D03*
X114300000Y-74500000D03*
X114300000Y-76500000D03*
X114300000Y-78500000D03*
D31*
X116900000Y-80000000D03*
X118900000Y-80000000D03*
X120900000Y-80000000D03*
X122900000Y-80000000D03*
X124900000Y-80000000D03*
X126900000Y-80000000D03*
D30*
X129500000Y-78500000D03*
X129500000Y-76500000D03*
X129500000Y-74500000D03*
X129500000Y-72500000D03*
X129500000Y-70500000D03*
X129500000Y-68500000D03*
X129500000Y-66500000D03*
X129500000Y-64500000D03*
D32*
X145250000Y-59490000D03*
X152260000Y-59490000D03*
D33*
X146500000Y-57000000D03*
X151000000Y-57000000D03*
D25*
X82450000Y-59850000D03*
D28*
X91500000Y-64097349D03*
D29*
X91500000Y-69097349D03*
D25*
X161450000Y-79200000D03*
D29*
X109500000Y-59000000D03*
X106500000Y-59000000D03*
D26*
X135225000Y-58500000D03*
D27*
X137765000Y-58500000D03*
D28*
X91500000Y-73597349D03*
D29*
X91500000Y-78597349D03*
D34*
X129500000Y-78500000D03*
X96000000Y-60000000D03*
X102000000Y-60000000D03*
X115000000Y-78500000D03*
X115000000Y-66500000D03*
X115000000Y-68500000D03*
X114000000Y-72500000D03*
X128500000Y-72500000D03*
X128500000Y-76500000D03*
X115000000Y-64500000D03*
X128500000Y-70500000D03*
X130000000Y-64500000D03*
X130000000Y-66500000D03*
X100500000Y-60000000D03*
X97500000Y-60000000D03*
%LPD*%
M02*
