G04 #@! TF.GenerationSoftware,KiCad,Pcbnew,8.0.3*
G04 #@! TF.CreationDate,2025-03-14T18:39:27+01:00*
G04 #@! TF.ProjectId,NIXIE_Sterownik,4e495849-455f-4537-9465-726f776e696b,rev?*
G04 #@! TF.SameCoordinates,Original*
G04 #@! TF.FileFunction,Legend,Bot*
G04 #@! TF.FilePolarity,Positive*
%FSLAX46Y46*%
G04 Gerber Fmt 4.6, Leading zero omitted, Abs format (unit mm)*
G04 Created by KiCad (PCBNEW 8.0.3) date 2025-03-14 18:39:27*
%MOMM*%
%LPD*%
G01*
G04 APERTURE LIST*
G04 Aperture macros list*
%AMRoundRect*
0 Rectangle with rounded corners*
0 $1 Rounding radius*
0 $2 $3 $4 $5 $6 $7 $8 $9 X,Y pos of 4 corners*
0 Add a 4 corners polygon primitive as box body*
4,1,4,$2,$3,$4,$5,$6,$7,$8,$9,$2,$3,0*
0 Add four circle primitives for the rounded corners*
1,1,$1+$1,$2,$3*
1,1,$1+$1,$4,$5*
1,1,$1+$1,$6,$7*
1,1,$1+$1,$8,$9*
0 Add four rect primitives between the rounded corners*
20,1,$1+$1,$2,$3,$4,$5,0*
20,1,$1+$1,$4,$5,$6,$7,0*
20,1,$1+$1,$6,$7,$8,$9,0*
20,1,$1+$1,$8,$9,$2,$3,0*%
G04 Aperture macros list end*
%ADD10C,0.150000*%
%ADD11C,0.120000*%
%ADD12O,1.100000X1.700000*%
%ADD13C,2.700000*%
%ADD14R,1.700000X1.700000*%
%ADD15O,1.700000X1.700000*%
%ADD16R,1.600000X1.600000*%
%ADD17C,1.600000*%
%ADD18C,2.100000*%
%ADD19C,1.750000*%
%ADD20RoundRect,0.250000X0.312500X0.625000X-0.312500X0.625000X-0.312500X-0.625000X0.312500X-0.625000X0*%
%ADD21RoundRect,0.250000X-0.850000X-0.350000X0.850000X-0.350000X0.850000X0.350000X-0.850000X0.350000X0*%
%ADD22RoundRect,0.249997X-2.950003X-2.650003X2.950003X-2.650003X2.950003X2.650003X-2.950003X2.650003X0*%
%ADD23RoundRect,0.250000X-0.650000X0.412500X-0.650000X-0.412500X0.650000X-0.412500X0.650000X0.412500X0*%
%ADD24RoundRect,0.250000X-0.412500X-0.650000X0.412500X-0.650000X0.412500X0.650000X-0.412500X0.650000X0*%
%ADD25C,0.600000*%
G04 APERTURE END LIST*
D10*
X123666666Y-72954819D02*
X123999999Y-72478628D01*
X124238094Y-72954819D02*
X124238094Y-71954819D01*
X124238094Y-71954819D02*
X123857142Y-71954819D01*
X123857142Y-71954819D02*
X123761904Y-72002438D01*
X123761904Y-72002438D02*
X123714285Y-72050057D01*
X123714285Y-72050057D02*
X123666666Y-72145295D01*
X123666666Y-72145295D02*
X123666666Y-72288152D01*
X123666666Y-72288152D02*
X123714285Y-72383390D01*
X123714285Y-72383390D02*
X123761904Y-72431009D01*
X123761904Y-72431009D02*
X123857142Y-72478628D01*
X123857142Y-72478628D02*
X124238094Y-72478628D01*
X123333332Y-71954819D02*
X122666666Y-71954819D01*
X122666666Y-71954819D02*
X123095237Y-72954819D01*
X120166666Y-64454819D02*
X120499999Y-63978628D01*
X120738094Y-64454819D02*
X120738094Y-63454819D01*
X120738094Y-63454819D02*
X120357142Y-63454819D01*
X120357142Y-63454819D02*
X120261904Y-63502438D01*
X120261904Y-63502438D02*
X120214285Y-63550057D01*
X120214285Y-63550057D02*
X120166666Y-63645295D01*
X120166666Y-63645295D02*
X120166666Y-63788152D01*
X120166666Y-63788152D02*
X120214285Y-63883390D01*
X120214285Y-63883390D02*
X120261904Y-63931009D01*
X120261904Y-63931009D02*
X120357142Y-63978628D01*
X120357142Y-63978628D02*
X120738094Y-63978628D01*
X119214285Y-64454819D02*
X119785713Y-64454819D01*
X119499999Y-64454819D02*
X119499999Y-63454819D01*
X119499999Y-63454819D02*
X119595237Y-63597676D01*
X119595237Y-63597676D02*
X119690475Y-63692914D01*
X119690475Y-63692914D02*
X119785713Y-63740533D01*
X113359580Y-72395833D02*
X113407200Y-72348214D01*
X113407200Y-72348214D02*
X113454819Y-72205357D01*
X113454819Y-72205357D02*
X113454819Y-72110119D01*
X113454819Y-72110119D02*
X113407200Y-71967262D01*
X113407200Y-71967262D02*
X113311961Y-71872024D01*
X113311961Y-71872024D02*
X113216723Y-71824405D01*
X113216723Y-71824405D02*
X113026247Y-71776786D01*
X113026247Y-71776786D02*
X112883390Y-71776786D01*
X112883390Y-71776786D02*
X112692914Y-71824405D01*
X112692914Y-71824405D02*
X112597676Y-71872024D01*
X112597676Y-71872024D02*
X112502438Y-71967262D01*
X112502438Y-71967262D02*
X112454819Y-72110119D01*
X112454819Y-72110119D02*
X112454819Y-72205357D01*
X112454819Y-72205357D02*
X112502438Y-72348214D01*
X112502438Y-72348214D02*
X112550057Y-72395833D01*
X112454819Y-73252976D02*
X112454819Y-73062500D01*
X112454819Y-73062500D02*
X112502438Y-72967262D01*
X112502438Y-72967262D02*
X112550057Y-72919643D01*
X112550057Y-72919643D02*
X112692914Y-72824405D01*
X112692914Y-72824405D02*
X112883390Y-72776786D01*
X112883390Y-72776786D02*
X113264342Y-72776786D01*
X113264342Y-72776786D02*
X113359580Y-72824405D01*
X113359580Y-72824405D02*
X113407200Y-72872024D01*
X113407200Y-72872024D02*
X113454819Y-72967262D01*
X113454819Y-72967262D02*
X113454819Y-73157738D01*
X113454819Y-73157738D02*
X113407200Y-73252976D01*
X113407200Y-73252976D02*
X113359580Y-73300595D01*
X113359580Y-73300595D02*
X113264342Y-73348214D01*
X113264342Y-73348214D02*
X113026247Y-73348214D01*
X113026247Y-73348214D02*
X112931009Y-73300595D01*
X112931009Y-73300595D02*
X112883390Y-73252976D01*
X112883390Y-73252976D02*
X112835771Y-73157738D01*
X112835771Y-73157738D02*
X112835771Y-72967262D01*
X112835771Y-72967262D02*
X112883390Y-72872024D01*
X112883390Y-72872024D02*
X112931009Y-72824405D01*
X112931009Y-72824405D02*
X113026247Y-72776786D01*
X117166666Y-66954819D02*
X117499999Y-66478628D01*
X117738094Y-66954819D02*
X117738094Y-65954819D01*
X117738094Y-65954819D02*
X117357142Y-65954819D01*
X117357142Y-65954819D02*
X117261904Y-66002438D01*
X117261904Y-66002438D02*
X117214285Y-66050057D01*
X117214285Y-66050057D02*
X117166666Y-66145295D01*
X117166666Y-66145295D02*
X117166666Y-66288152D01*
X117166666Y-66288152D02*
X117214285Y-66383390D01*
X117214285Y-66383390D02*
X117261904Y-66431009D01*
X117261904Y-66431009D02*
X117357142Y-66478628D01*
X117357142Y-66478628D02*
X117738094Y-66478628D01*
X116309523Y-66288152D02*
X116309523Y-66954819D01*
X116547618Y-65907200D02*
X116785713Y-66621485D01*
X116785713Y-66621485D02*
X116166666Y-66621485D01*
X104666666Y-66859580D02*
X104714285Y-66907200D01*
X104714285Y-66907200D02*
X104857142Y-66954819D01*
X104857142Y-66954819D02*
X104952380Y-66954819D01*
X104952380Y-66954819D02*
X105095237Y-66907200D01*
X105095237Y-66907200D02*
X105190475Y-66811961D01*
X105190475Y-66811961D02*
X105238094Y-66716723D01*
X105238094Y-66716723D02*
X105285713Y-66526247D01*
X105285713Y-66526247D02*
X105285713Y-66383390D01*
X105285713Y-66383390D02*
X105238094Y-66192914D01*
X105238094Y-66192914D02*
X105190475Y-66097676D01*
X105190475Y-66097676D02*
X105095237Y-66002438D01*
X105095237Y-66002438D02*
X104952380Y-65954819D01*
X104952380Y-65954819D02*
X104857142Y-65954819D01*
X104857142Y-65954819D02*
X104714285Y-66002438D01*
X104714285Y-66002438D02*
X104666666Y-66050057D01*
X103809523Y-66288152D02*
X103809523Y-66954819D01*
X104047618Y-65907200D02*
X104285713Y-66621485D01*
X104285713Y-66621485D02*
X103666666Y-66621485D01*
X123666666Y-70454819D02*
X123999999Y-69978628D01*
X124238094Y-70454819D02*
X124238094Y-69454819D01*
X124238094Y-69454819D02*
X123857142Y-69454819D01*
X123857142Y-69454819D02*
X123761904Y-69502438D01*
X123761904Y-69502438D02*
X123714285Y-69550057D01*
X123714285Y-69550057D02*
X123666666Y-69645295D01*
X123666666Y-69645295D02*
X123666666Y-69788152D01*
X123666666Y-69788152D02*
X123714285Y-69883390D01*
X123714285Y-69883390D02*
X123761904Y-69931009D01*
X123761904Y-69931009D02*
X123857142Y-69978628D01*
X123857142Y-69978628D02*
X124238094Y-69978628D01*
X123095237Y-69883390D02*
X123190475Y-69835771D01*
X123190475Y-69835771D02*
X123238094Y-69788152D01*
X123238094Y-69788152D02*
X123285713Y-69692914D01*
X123285713Y-69692914D02*
X123285713Y-69645295D01*
X123285713Y-69645295D02*
X123238094Y-69550057D01*
X123238094Y-69550057D02*
X123190475Y-69502438D01*
X123190475Y-69502438D02*
X123095237Y-69454819D01*
X123095237Y-69454819D02*
X122904761Y-69454819D01*
X122904761Y-69454819D02*
X122809523Y-69502438D01*
X122809523Y-69502438D02*
X122761904Y-69550057D01*
X122761904Y-69550057D02*
X122714285Y-69645295D01*
X122714285Y-69645295D02*
X122714285Y-69692914D01*
X122714285Y-69692914D02*
X122761904Y-69788152D01*
X122761904Y-69788152D02*
X122809523Y-69835771D01*
X122809523Y-69835771D02*
X122904761Y-69883390D01*
X122904761Y-69883390D02*
X123095237Y-69883390D01*
X123095237Y-69883390D02*
X123190475Y-69931009D01*
X123190475Y-69931009D02*
X123238094Y-69978628D01*
X123238094Y-69978628D02*
X123285713Y-70073866D01*
X123285713Y-70073866D02*
X123285713Y-70264342D01*
X123285713Y-70264342D02*
X123238094Y-70359580D01*
X123238094Y-70359580D02*
X123190475Y-70407200D01*
X123190475Y-70407200D02*
X123095237Y-70454819D01*
X123095237Y-70454819D02*
X122904761Y-70454819D01*
X122904761Y-70454819D02*
X122809523Y-70407200D01*
X122809523Y-70407200D02*
X122761904Y-70359580D01*
X122761904Y-70359580D02*
X122714285Y-70264342D01*
X122714285Y-70264342D02*
X122714285Y-70073866D01*
X122714285Y-70073866D02*
X122761904Y-69978628D01*
X122761904Y-69978628D02*
X122809523Y-69931009D01*
X122809523Y-69931009D02*
X122904761Y-69883390D01*
X123666666Y-76954819D02*
X123999999Y-76478628D01*
X124238094Y-76954819D02*
X124238094Y-75954819D01*
X124238094Y-75954819D02*
X123857142Y-75954819D01*
X123857142Y-75954819D02*
X123761904Y-76002438D01*
X123761904Y-76002438D02*
X123714285Y-76050057D01*
X123714285Y-76050057D02*
X123666666Y-76145295D01*
X123666666Y-76145295D02*
X123666666Y-76288152D01*
X123666666Y-76288152D02*
X123714285Y-76383390D01*
X123714285Y-76383390D02*
X123761904Y-76431009D01*
X123761904Y-76431009D02*
X123857142Y-76478628D01*
X123857142Y-76478628D02*
X124238094Y-76478628D01*
X122809523Y-75954819D02*
X122999999Y-75954819D01*
X122999999Y-75954819D02*
X123095237Y-76002438D01*
X123095237Y-76002438D02*
X123142856Y-76050057D01*
X123142856Y-76050057D02*
X123238094Y-76192914D01*
X123238094Y-76192914D02*
X123285713Y-76383390D01*
X123285713Y-76383390D02*
X123285713Y-76764342D01*
X123285713Y-76764342D02*
X123238094Y-76859580D01*
X123238094Y-76859580D02*
X123190475Y-76907200D01*
X123190475Y-76907200D02*
X123095237Y-76954819D01*
X123095237Y-76954819D02*
X122904761Y-76954819D01*
X122904761Y-76954819D02*
X122809523Y-76907200D01*
X122809523Y-76907200D02*
X122761904Y-76859580D01*
X122761904Y-76859580D02*
X122714285Y-76764342D01*
X122714285Y-76764342D02*
X122714285Y-76526247D01*
X122714285Y-76526247D02*
X122761904Y-76431009D01*
X122761904Y-76431009D02*
X122809523Y-76383390D01*
X122809523Y-76383390D02*
X122904761Y-76335771D01*
X122904761Y-76335771D02*
X123095237Y-76335771D01*
X123095237Y-76335771D02*
X123190475Y-76383390D01*
X123190475Y-76383390D02*
X123238094Y-76431009D01*
X123238094Y-76431009D02*
X123285713Y-76526247D01*
X120204166Y-61954819D02*
X120537499Y-61478628D01*
X120775594Y-61954819D02*
X120775594Y-60954819D01*
X120775594Y-60954819D02*
X120394642Y-60954819D01*
X120394642Y-60954819D02*
X120299404Y-61002438D01*
X120299404Y-61002438D02*
X120251785Y-61050057D01*
X120251785Y-61050057D02*
X120204166Y-61145295D01*
X120204166Y-61145295D02*
X120204166Y-61288152D01*
X120204166Y-61288152D02*
X120251785Y-61383390D01*
X120251785Y-61383390D02*
X120299404Y-61431009D01*
X120299404Y-61431009D02*
X120394642Y-61478628D01*
X120394642Y-61478628D02*
X120775594Y-61478628D01*
X119870832Y-60954819D02*
X119251785Y-60954819D01*
X119251785Y-60954819D02*
X119585118Y-61335771D01*
X119585118Y-61335771D02*
X119442261Y-61335771D01*
X119442261Y-61335771D02*
X119347023Y-61383390D01*
X119347023Y-61383390D02*
X119299404Y-61431009D01*
X119299404Y-61431009D02*
X119251785Y-61526247D01*
X119251785Y-61526247D02*
X119251785Y-61764342D01*
X119251785Y-61764342D02*
X119299404Y-61859580D01*
X119299404Y-61859580D02*
X119347023Y-61907200D01*
X119347023Y-61907200D02*
X119442261Y-61954819D01*
X119442261Y-61954819D02*
X119727975Y-61954819D01*
X119727975Y-61954819D02*
X119823213Y-61907200D01*
X119823213Y-61907200D02*
X119870832Y-61859580D01*
X120166666Y-69454819D02*
X120499999Y-68978628D01*
X120738094Y-69454819D02*
X120738094Y-68454819D01*
X120738094Y-68454819D02*
X120357142Y-68454819D01*
X120357142Y-68454819D02*
X120261904Y-68502438D01*
X120261904Y-68502438D02*
X120214285Y-68550057D01*
X120214285Y-68550057D02*
X120166666Y-68645295D01*
X120166666Y-68645295D02*
X120166666Y-68788152D01*
X120166666Y-68788152D02*
X120214285Y-68883390D01*
X120214285Y-68883390D02*
X120261904Y-68931009D01*
X120261904Y-68931009D02*
X120357142Y-68978628D01*
X120357142Y-68978628D02*
X120738094Y-68978628D01*
X119261904Y-68454819D02*
X119738094Y-68454819D01*
X119738094Y-68454819D02*
X119785713Y-68931009D01*
X119785713Y-68931009D02*
X119738094Y-68883390D01*
X119738094Y-68883390D02*
X119642856Y-68835771D01*
X119642856Y-68835771D02*
X119404761Y-68835771D01*
X119404761Y-68835771D02*
X119309523Y-68883390D01*
X119309523Y-68883390D02*
X119261904Y-68931009D01*
X119261904Y-68931009D02*
X119214285Y-69026247D01*
X119214285Y-69026247D02*
X119214285Y-69264342D01*
X119214285Y-69264342D02*
X119261904Y-69359580D01*
X119261904Y-69359580D02*
X119309523Y-69407200D01*
X119309523Y-69407200D02*
X119404761Y-69454819D01*
X119404761Y-69454819D02*
X119642856Y-69454819D01*
X119642856Y-69454819D02*
X119738094Y-69407200D01*
X119738094Y-69407200D02*
X119785713Y-69359580D01*
X118666666Y-76859580D02*
X118714285Y-76907200D01*
X118714285Y-76907200D02*
X118857142Y-76954819D01*
X118857142Y-76954819D02*
X118952380Y-76954819D01*
X118952380Y-76954819D02*
X119095237Y-76907200D01*
X119095237Y-76907200D02*
X119190475Y-76811961D01*
X119190475Y-76811961D02*
X119238094Y-76716723D01*
X119238094Y-76716723D02*
X119285713Y-76526247D01*
X119285713Y-76526247D02*
X119285713Y-76383390D01*
X119285713Y-76383390D02*
X119238094Y-76192914D01*
X119238094Y-76192914D02*
X119190475Y-76097676D01*
X119190475Y-76097676D02*
X119095237Y-76002438D01*
X119095237Y-76002438D02*
X118952380Y-75954819D01*
X118952380Y-75954819D02*
X118857142Y-75954819D01*
X118857142Y-75954819D02*
X118714285Y-76002438D01*
X118714285Y-76002438D02*
X118666666Y-76050057D01*
X117714285Y-76954819D02*
X118285713Y-76954819D01*
X117999999Y-76954819D02*
X117999999Y-75954819D01*
X117999999Y-75954819D02*
X118095237Y-76097676D01*
X118095237Y-76097676D02*
X118190475Y-76192914D01*
X118190475Y-76192914D02*
X118285713Y-76240533D01*
D11*
X126272936Y-71590000D02*
X127727064Y-71590000D01*
X126272936Y-73410000D02*
X127727064Y-73410000D01*
X96007651Y-63050000D02*
X102427651Y-63050000D01*
X96007651Y-63320000D02*
X96007651Y-63050000D01*
X96007651Y-69680000D02*
X96007651Y-69950000D01*
X96007651Y-69950000D02*
X102427651Y-69950000D01*
X94832651Y-69990000D02*
X94352651Y-69990000D01*
X94592651Y-69660000D01*
X94832651Y-69990000D01*
G36*
X94832651Y-69990000D02*
G01*
X94352651Y-69990000D01*
X94592651Y-69660000D01*
X94832651Y-69990000D01*
G37*
X115772936Y-63090000D02*
X117227064Y-63090000D01*
X115772936Y-64910000D02*
X117227064Y-64910000D01*
X110590000Y-73273752D02*
X110590000Y-71851248D01*
X112410000Y-73273752D02*
X112410000Y-71851248D01*
X112772936Y-65590000D02*
X114227064Y-65590000D01*
X112772936Y-67410000D02*
X114227064Y-67410000D01*
X109211252Y-65590000D02*
X107788748Y-65590000D01*
X109211252Y-67410000D02*
X107788748Y-67410000D01*
X126272936Y-69090000D02*
X127727064Y-69090000D01*
X126272936Y-70910000D02*
X127727064Y-70910000D01*
X126272936Y-75590000D02*
X127727064Y-75590000D01*
X126272936Y-77410000D02*
X127727064Y-77410000D01*
X115772936Y-60590000D02*
X117227064Y-60590000D01*
X115772936Y-62410000D02*
X117227064Y-62410000D01*
X115772936Y-68090000D02*
X117227064Y-68090000D01*
X115772936Y-69910000D02*
X117227064Y-69910000D01*
X96230000Y-72770000D02*
X102650000Y-72770000D01*
X96230000Y-73040000D02*
X96230000Y-72770000D01*
X96230000Y-79400000D02*
X96230000Y-79670000D01*
X96230000Y-79670000D02*
X102650000Y-79670000D01*
X95055000Y-79710000D02*
X94575000Y-79710000D01*
X94815000Y-79380000D01*
X95055000Y-79710000D01*
G36*
X95055000Y-79710000D02*
G01*
X94575000Y-79710000D01*
X94815000Y-79380000D01*
X95055000Y-79710000D01*
G37*
X122711252Y-75590000D02*
X121288748Y-75590000D01*
X122711252Y-77410000D02*
X121288748Y-77410000D01*
%LPC*%
D12*
X103320000Y-60000000D03*
X103320000Y-56200000D03*
X94680000Y-60000000D03*
X94680000Y-56200000D03*
D13*
X161400000Y-59850000D03*
D14*
X108500000Y-70000000D03*
D15*
X108500000Y-72540000D03*
X108500000Y-75080000D03*
D14*
X90500000Y-59500000D03*
D15*
X90500000Y-56960000D03*
D13*
X82450000Y-79200000D03*
D14*
X153540000Y-79500000D03*
D15*
X151000000Y-79500000D03*
X148460000Y-79500000D03*
D14*
X143775000Y-79500000D03*
D15*
X141235000Y-79500000D03*
D16*
X138500000Y-69500000D03*
D17*
X138500000Y-74500000D03*
D18*
X145250000Y-59490000D03*
X152260000Y-59490000D03*
D19*
X146500000Y-57000000D03*
X151000000Y-57000000D03*
D13*
X82450000Y-59850000D03*
D16*
X91500000Y-64097349D03*
D17*
X91500000Y-69097349D03*
D13*
X161450000Y-79200000D03*
D17*
X109500000Y-59000000D03*
X106500000Y-59000000D03*
D14*
X135225000Y-58500000D03*
D15*
X137765000Y-58500000D03*
D16*
X91500000Y-73597349D03*
D17*
X91500000Y-78597349D03*
D20*
X128462500Y-72500000D03*
X125537500Y-72500000D03*
D21*
X94277651Y-68780000D03*
X94277651Y-66500000D03*
D22*
X100577651Y-66500000D03*
D21*
X94277651Y-64220000D03*
D20*
X117962500Y-64000000D03*
X115037500Y-64000000D03*
D23*
X111500000Y-71000000D03*
X111500000Y-74125000D03*
D20*
X114962500Y-66500000D03*
X112037500Y-66500000D03*
D24*
X106937500Y-66500000D03*
X110062500Y-66500000D03*
D20*
X128462500Y-70000000D03*
X125537500Y-70000000D03*
X128462500Y-76500000D03*
X125537500Y-76500000D03*
X117962500Y-61500000D03*
X115037500Y-61500000D03*
X117962500Y-69000000D03*
X115037500Y-69000000D03*
D21*
X94500000Y-78500000D03*
X94500000Y-76220000D03*
D22*
X100800000Y-76220000D03*
D21*
X94500000Y-73940000D03*
D24*
X120437500Y-76500000D03*
X123562500Y-76500000D03*
D25*
X129500000Y-78500000D03*
X96000000Y-60000000D03*
X102000000Y-60000000D03*
X115000000Y-78500000D03*
X115000000Y-66500000D03*
X115000000Y-68500000D03*
X114000000Y-72500000D03*
X128500000Y-72500000D03*
X128500000Y-76500000D03*
X115000000Y-64500000D03*
X128500000Y-70500000D03*
X130000000Y-64500000D03*
X130000000Y-66500000D03*
X100500000Y-60000000D03*
X97500000Y-60000000D03*
%LPD*%
M02*
