G04 #@! TF.GenerationSoftware,KiCad,Pcbnew,8.0.3*
G04 #@! TF.CreationDate,2025-03-14T18:24:52+01:00*
G04 #@! TF.ProjectId,Nixie,4e697869-652e-46b6-9963-61645f706362,rev?*
G04 #@! TF.SameCoordinates,Original*
G04 #@! TF.FileFunction,Legend,Top*
G04 #@! TF.FilePolarity,Positive*
%FSLAX46Y46*%
G04 Gerber Fmt 4.6, Leading zero omitted, Abs format (unit mm)*
G04 Created by KiCad (PCBNEW 8.0.3) date 2025-03-14 18:24:52*
%MOMM*%
%LPD*%
G01*
G04 APERTURE LIST*
%ADD10C,0.120000*%
%ADD11R,0.850000X1.600000*%
%ADD12R,1.600000X0.850000*%
%ADD13R,1.700000X1.700000*%
%ADD14O,1.700000X1.700000*%
G04 APERTURE END LIST*
D10*
X67050000Y-66150000D02*
X67050000Y-72050000D01*
X67050000Y-72050000D02*
X68125000Y-72050000D01*
X70950000Y-66150000D02*
X70950000Y-72050000D01*
X80050000Y-57750000D02*
X80050000Y-51850000D01*
X83950000Y-51850000D02*
X82875000Y-51850000D01*
X83950000Y-57750000D02*
X83950000Y-51850000D01*
X72550000Y-46300000D02*
X72550000Y-47375000D01*
X78450000Y-46300000D02*
X72550000Y-46300000D01*
X78450000Y-50200000D02*
X72550000Y-50200000D01*
X67050000Y-51850000D02*
X67050000Y-57750000D01*
X67050000Y-57750000D02*
X68125000Y-57750000D01*
X70950000Y-51850000D02*
X70950000Y-57750000D01*
X72600000Y-72300000D02*
X72600000Y-73375000D01*
X78500000Y-72300000D02*
X72600000Y-72300000D01*
X78500000Y-76200000D02*
X72600000Y-76200000D01*
X80050000Y-72050000D02*
X80050000Y-66150000D01*
X83950000Y-66150000D02*
X82875000Y-66150000D01*
X83950000Y-72050000D02*
X83950000Y-66150000D01*
X72550000Y-60500000D02*
X78450000Y-60500000D01*
X72550000Y-64400000D02*
X78450000Y-64400000D01*
X78450000Y-64400000D02*
X78450000Y-63325000D01*
%LPC*%
D11*
X69875000Y-67350000D03*
X68125000Y-67350000D03*
X68125000Y-70850000D03*
X69875000Y-70850000D03*
X81125000Y-56550000D03*
X82875000Y-56550000D03*
X82875000Y-53050000D03*
X81125000Y-53050000D03*
D12*
X77250000Y-49125000D03*
X77250000Y-47375000D03*
X73750000Y-47375000D03*
X73750000Y-49125000D03*
D11*
X69875000Y-53050000D03*
X68125000Y-53050000D03*
X68125000Y-56550000D03*
X69875000Y-56550000D03*
D12*
X77300000Y-75125000D03*
X77300000Y-73375000D03*
X73800000Y-73375000D03*
X73800000Y-75125000D03*
D11*
X81125000Y-70850000D03*
X82875000Y-70850000D03*
X82875000Y-67350000D03*
X81125000Y-67350000D03*
D12*
X73750000Y-61575000D03*
X73750000Y-63325000D03*
X77250000Y-63325000D03*
X77250000Y-61575000D03*
D13*
X71580000Y-80425000D03*
D14*
X74120000Y-80425000D03*
X76660000Y-80425000D03*
X79200000Y-80425000D03*
%LPD*%
M02*
